<svg xmlns="http://www.w3.org/2000/svg" viewBox="0 0 660.99 600.14"><defs><style>.cls-1{fill:#9aa162;}.cls-2{fill:#ffe9d9;}.cls-3{fill:#e6e8a7;}.cls-4{fill:#ffe4ab;}.cls-5{fill:#d6cb91;}.cls-6{fill:#c4b878;}.cls-7{fill:#783e3e;}.cls-8{fill:#fff;}.cls-9{fill:#452b2b;}.cls-10{fill:#f9b98e;}.cls-11{fill:#d88463;}.cls-12{fill:#211717;}.cls-13{fill:#eb8382;}.cls-14{fill:#c25c5b;}.cls-15{fill:#bda377;}.cls-16{fill:#442523;}.cls-17{fill:#747d2d;}</style></defs><g id="Layer_2" data-name="Layer 2"><g id="Layer_1-2" data-name="Layer 1"><path class="cls-1" d="M640.05,519.31c-3.94-7.1-14-3.93-20.6-6.41a147.45,147.45,0,0,0-28.21-7.34c-18.92-3.07-38.22-3-57.27-1.47-21.2,1.68-42.23,4.93-63.39,7a316,316,0,0,1-63.1.24c-20.77-2.11-41.39-5.71-62.24-7-20.34-1.29-39.55,1.18-59.53,4.73-10.64,1.89-21.37,3.32-32.17,2.33-10.16-.93-20-3.69-29.79-6.68-19-5.82-37.36-11.42-57.33-11.65-23.09-.27-45.93,4.6-68.24,10.36-9.92,2.56-38.05,6.22-34.41,23a1,1,0,0,0,1.81.39c9.22,14.93,10,25.6,25.42,34.3,8.3,4.68,26.43,11.59,35.24,15.07,10.17,4,20.37,8,30.76,11.34a221.61,221.61,0,0,0,64,10.63c22,.52,44.05-.7,66.08-.38,43.87.64,87.79,4.24,131.64,1.33a326.32,326.32,0,0,0,61.64-9.57c19.86-5.25,38.87-13.21,58-20.69,22-8.6,44.41-16.41,68-18.44,9.1-.78,19.18-1.22,26.75-7.19,4.41-3.47,9.72-15.33,7.84-21.58A11.86,11.86,0,0,0,640.05,519.31Z"/><path class="cls-2" d="M627.56,466.07C608,437.14,568.44,388,554.9,356.09,548.14,340.17,539.64,324.7,528,312s-28.26-20.37-38.14-35c-11.47-17-19-36-26.31-55.13-7-18.2-14.07-36.73-25.36-52.71A102.54,102.54,0,0,0,419,148.61c-7.43-6-15.44-11.26-23.08-17-7.89-5.93-15.5-12.54-20.92-20.93-4.87-7.55-7.52-16.24-9.51-25-3.59-15.73-4.81-33.85-15-47a33.75,33.75,0,0,0-4.62-4.86,7.15,7.15,0,0,0-5.73-1.64,6.16,6.16,0,0,1-1.05.05c-8.47,9.27-13,21.81-16.56,34-2.51,8.63-4.62,17.37-7.44,25.9A119.26,119.26,0,0,1,301,121a125.63,125.63,0,0,1-22.48,25.07c-8.66,7.51-17.89,14.34-26.15,22.32-12.81,12.39-23.05,27.22-31.39,43-22.16,42-61.94,69.14-89.18,107C101.86,360,85.83,410.57,43.61,442.46c-12.82,9.68,5.32,66.24,0,84.69H628.94c2.8-4.55,6.55-8.5,10-12.58C635.16,495.7,641.54,486.79,627.56,466.07Z"/><path class="cls-3" d="M464.45,331.5c-4.76-.12-10,5.61-12.27,9.22a19.6,19.6,0,0,0-2.35,15.38.54.54,0,0,0,.17.69,47,47,0,0,0-3.14,23.32,41.07,41.07,0,0,1-1.6-6.56,39.92,39.92,0,0,0-2.91-9c-1.15-2.45-5.43-12.08-9.27-8-3.22,3.44-1.14,9.93.67,13.49a40.81,40.81,0,0,0,13.84,15c.31,1.6.67,3.2,1.1,4.8,1.75,6.47,4,12.79,5.23,19.4a69.76,69.76,0,0,1,1,15.14c-2.36-7.67-10.69-33-18.19-26-3.31,3.08.62,10.33,2.5,13.18,4.05,6.15,10.16,10.95,15.5,15.93-.11,1.3-.25,2.6-.43,3.89-1.79,12.6-7.44,23.75-13.56,34.67.34-6.62,2.83-12.89,3.46-19.5.24-2.47.62-13-4.29-12.06-2,.4-3.37,3.46-4,5a23.21,23.21,0,0,0-1.65,8.84,46.12,46.12,0,0,0,4.89,20.57l-1.38,2.42c-6.26,11-11.9,22.32-15.36,34.53-3.7,13.06-4.7,26.86-1.1,40.05a.63.63,0,0,0,1.21-.35c-3.47-12.71-2.57-25.5.73-37.84l.11,0c-.21.46.12,1.11.7.88,6.79-2.8,13.57-6.17,18.54-11.74a26.25,26.25,0,0,0,4.93-7.9c.71-1.84,2.1-5.34.14-7-1.34-1.1-3.1-.33-4.36.46a52.35,52.35,0,0,0-8.5,7.31c-3,3-6.57,6.15-9,9.84A166.49,166.49,0,0,1,438,473.38c6.8-12,14.06-24,16.83-37.75a71.19,71.19,0,0,0,.39-25.2c4.22-3.19,8.17-5.89,10.58-10.77.92-1.87,3.69-6.89.33-8.12-3.14-1.15-7.09,4-8.53,6a17.32,17.32,0,0,0-3.31,7.91c-.46-2.12-1-4.24-1.58-6.35-1.36-4.68-2.89-9.37-3.92-14.15a.54.54,0,0,0,.36-.09c4.12-2.67,9-5.1,12.34-8.73,1.25-1.35,4.17-5.41,1.88-7.16-2.12-1.6-6,2.09-7.4,3.29a28.29,28.29,0,0,0-7.63,10.36,47.53,47.53,0,0,1-.72-6,44.18,44.18,0,0,1,4.08-20.61l8.11-7.12c2.54-2.23,5-4.42,6.58-7.49C467.86,338.59,469.69,331.63,464.45,331.5Z"/><path class="cls-3" d="M175,529.51a89.87,89.87,0,0,1,5.88,8A7.17,7.17,0,0,1,182,537a89.29,89.29,0,0,0-7-9.53c-8.17-9.72-18-17.73-28.19-25.18l-2.25-1.65a46.14,46.14,0,0,0-4-20.75,23.27,23.27,0,0,0-5.13-7.38c-1.27-1.18-3.81-3.39-5.77-2.94-4.87,1.12-.19,10.59,1.05,12.75,3.29,5.77,8.14,10.46,11.17,16.36-10.08-7.45-19.81-15.29-26.61-26-.7-1.1-1.35-2.23-2-3.37,2.81-6.74,6.42-13.62,7.59-20.89.54-3.38,1.14-11.59-3.14-13.05-9.71-3.29-6.9,23.23-5.9,31.19a69.78,69.78,0,0,1-5.28-14.23c-1.62-6.51-2.14-13.22-3.21-19.83-.26-1.64-.58-3.24-1-4.83a40.9,40.9,0,0,0,6.47-19.33c.18-4-.58-10.76-4.93-12.57-5.19-2.15-5.13,8.39-5.17,11.09a40,40,0,0,0,1.06,9.44,42.31,42.31,0,0,1,1.24,6.64A46.62,46.62,0,0,0,88.61,403a.61.61,0,0,0-.13-.74A19.64,19.64,0,0,0,80,389.17c-3.54-2.36-10.68-5.42-15-3.36-4.73,2.27-.2,7.86,2.29,9.87,2.67,2.16,5.84,3.13,9.08,4.13L86.72,403a44.19,44.19,0,0,1,12.19,17.12,48.1,48.1,0,0,1,1.79,5.73,28.31,28.31,0,0,0-11.21-6.32c-1.78-.51-6.83-2.28-8.1.05-1.37,2.53,3,5,4.65,5.76,4.56,1.93,10,2.14,14.84,2.88a.55.55,0,0,0,.37-.06c1,4.78,1.56,9.68,2.24,14.51.31,2.17.71,4.32,1.16,6.44a17.4,17.4,0,0,0-6.26-5.86c-2.13-1.21-7.86-4.3-10.24-2-2.56,2.5,2,5.94,3.64,7.26,4.19,3.47,8.91,4.3,14.07,5.48a71.21,71.21,0,0,0,10.7,22.82c8.16,11.37,19.72,19.32,30.86,27.49a166.73,166.73,0,0,1,22,18.88c-3.77-2.35-8.3-3.78-12.29-5.26a52.62,52.62,0,0,0-10.75-3.17c-1.47-.2-3.4-.18-4.16,1.37-1.13,2.29,1.58,4.9,3,6.29a25.92,25.92,0,0,0,7.74,5.17c6.81,3,14.38,3.33,21.72,3.09.62,0,.66-.75.28-1.09Z"/><path class="cls-4" d="M371.37,20.43A16.05,16.05,0,0,0,363,11.07c-5.29-2.72-10.53-5.47-15.79-8.22C342.27.27,336-1,330.69,1c-7,2.62-7.5,11-11.93,16.29-2.44,2.94-5.6,5.14-8.22,7.9-4.26,4.49-6.63,12.07-2.1,17.31,2.87,3.3,7.59,4.38,10.39,7.75,3.21,3.86,3.06,9.48,6.1,13.45,3.37,4.4,9.63,6.4,14.7,4.21,5.26-2.28,8-8.08,12.69-11.26,6.06-4.14,13-6.29,16.88-13.15A30.35,30.35,0,0,0,371.37,20.43Z"/><path class="cls-5" d="M572.53,350.61c-7.13-8.8-18.39-4.66-25.83,1.35-10.47,8.47-19.06,20.69-25.49,32.62-3.93,7.31-6.5,13.53-14.14,17.57-5.37,2.85-10.56,5.64-15.34,9.49a76.22,76.22,0,0,0-8.14,7.62,2.85,2.85,0,0,1-4.79-2.82c2.2-8.49,5.88-16.83,9.08-24.63,2.56-6.22,5.89-13.51,3.71-20.37-1.47-4.62-5.33-8.24-10.2-7.9-6.15.42-10.64,6.34-13.91,11.13A64.78,64.78,0,0,0,457.84,397c-1.9,8.46-1.06,16.59-1.42,25.15-.38,9.2-5.14,17.15-6.4,26.17a52.66,52.66,0,0,0,13.59,42.93,1.07,1.07,0,0,0,1.8-.49c3.78-14.28,13.76-26.19,27.18-31.59,4.55-1.83,9.58-2.92,13.31-6.42,4.27-4,5.94-10.13,8.09-15.46,3-7.48,6.58-14.82,12.08-20.71,5.27-5.64,11.77-9.8,18.22-13.83,10.27-6.4,21.15-12.93,27.71-23.72C577,370.67,579.09,358.73,572.53,350.61Z"/><path class="cls-5" d="M148.6,492.76c-7.87-5.53-16.65,3.1-22.09,11.15a73.74,73.74,0,0,0,1.14-24.67c-.8-6.32-2.67-16.69-11.19-13.9-8.09,2.65-13.53,14.19-17.24,21.23a118.86,118.86,0,0,0-10.09,26.59c2.22-8.84-4.14-25.28-6.78-33.71a163.61,163.61,0,0,0-14.11-32.32,160.24,160.24,0,0,0-18.77-26.3c-3.09-3.51-7.69-9.23-12.59-13.89-5.45-5.18-14.19-.54-13.39,7.06A107.12,107.12,0,0,0,27,430.41c3.11,11.43,7.51,22.43,11.78,33.44q12.61,32.5,25.24,65c-9.19-9.45-19-18.69-30.67-24.57C25.76,500.5,9.16,494,2.22,502.5-5.55,512,9,524.17,16.29,527.43c7.09,3.17,48.49,16.64,47.42,15.73,17.42.6,35,1.8,52.46,1.35,14.17-.35,27.55-4.16,33.42-18.7C152.89,517.65,157.52,499,148.6,492.76Z"/><path class="cls-5" d="M250.45,400.77c-11.66-6-22.86,12.16-22.65,23.8.15,8.37,2.79,16.31,3.95,24.53a99.74,99.74,0,0,1,.11,27.34c-.57,4.21-4.18,18.12-8.73,8.51-5.5-11.63-9-23.85-12.74-36.15-3.68-12.07-5.28-24.88-10.85-36.28-6.29-12.88-16.54-24.45-24.62-35.85-3.92-5.51-8.13-10.78-12.36-16-3.44-4.29-8.83-14.81-15-15.24a6.17,6.17,0,0,0-3.87,1.3c-10.27,7.15-14.07,28.2-11.24,39.67,2.45,9.91,10.23,16,18,21.4a115.39,115.39,0,0,1,25.35,23.35c13,16.53,21.47,35.83,28.8,55.56a1.93,1.93,0,0,1-3.4,1.8c-5.37-8.51-10.16-17.48-17-24.71-10.9-11.45-26.33-18.06-40.8-22.85a7.71,7.71,0,0,0-4.41-.22c-4.06,1.09-4.33,5.16-3.88,8.55a29.28,29.28,0,0,0,5,13.23c5.23,7.25,13.85,10.8,22,14.11,19.12,7.77,38.61,16.5,52.75,31.91a1,1,0,0,0-1.54.84c0,2.1,18.69,4.69,21.42,5.24,5.89,1.18,14.28,2.14,17.36-4.67,1.54-3.4,1.45-7.32,1.38-11.08a393.72,393.72,0,0,1,1.65-43.44c1.24-13.3,5.56-27.86,3.83-41.2-.44-3.37-1.43-6.78-3.61-9.33A16.77,16.77,0,0,0,250.45,400.77Z"/><path class="cls-5" d="M653.58,454.61c-8.69-11.61-29,.15-37.64,5.92a146.59,146.59,0,0,0-49.4,56.34c-.35-7,3.34-13.54,5.3-20.12,1.59-5.94,3-12.46,2.91-18.67-.17-11.48-10.92-5-16.17-1-19,14.43-29.43,40-32.88,63.44-.17,1.19,1.28,1.79,1.85,1.09a1.16,1.16,0,0,0,1,.83c10.51,1.28,21,3.65,31.68,3,11.58-.71,20.29-7.38,31.12-10.59,9.05-2.69,18.22-6,23.44-14.6,2.91-4.81,4.7-10.24,7-15.38a79.26,79.26,0,0,1,19.57-26.65C646.68,473.44,660,463.22,653.58,454.61Z"/><path class="cls-6" d="M206.47,465.69c-2.82-8.6-5.59-17.21-8.46-25.78-2.45-7.33-5.25-14.58-10-20.76s-10.34-11.35-14.24-18.07c-3.36-5.81-5.86-12.07-8.9-18-3.23-6.35-7.15-12.29-13-16.51-.55-.39-1.07.52-.53.91,10.91,7.88,14.55,21.58,20.78,32.85,3.4,6.15,8,11.13,12.56,16.43,5.42,6.34,8.86,13.48,11.57,21.32,3.2,9.26,6.13,18.62,9.18,27.93C205.67,466.6,206.68,466.33,206.47,465.69Z"/><path class="cls-6" d="M243.5,416a.52.52,0,0,0-1,.28c3.14,11.92,1.64,24.22.07,36.25-.08.67,1,.66,1.05,0C245.19,440.43,246.67,428,243.5,416Z"/><path class="cls-6" d="M41.66,425.12c-.37-.56-1.28,0-.9.53A183.12,183.12,0,0,1,70.42,510.1c.06.67,1.11.68,1,0A184.24,184.24,0,0,0,41.66,425.12Z"/><path class="cls-6" d="M160.05,468.05a66.14,66.14,0,0,0-10.29-18c-.42-.52-1.16.22-.74.74a64.66,64.66,0,0,1,10,17.55C159.27,469,160.28,468.68,160.05,468.05Z"/><path class="cls-6" d="M552.77,365.73q-9.9,10.53-19.81,21A97.44,97.44,0,0,0,518,407c-4.28,7.81-8.46,15.36-15.86,20.66-6.53,4.69-13.8,8.12-19.73,13.64a56.74,56.74,0,0,0-14.09,20.88c-.24.63.77.9,1,.28a55.63,55.63,0,0,1,13.51-20.14c6.05-5.71,13.53-9.16,20.19-14,6.26-4.56,10.34-10.68,14-17.39,1.92-3.5,3.76-7,5.94-10.4a82.62,82.62,0,0,1,8.77-10.89c7.17-7.78,14.5-15.43,21.76-23.14C554,366,553.23,365.24,552.77,365.73Z"/><path class="cls-6" d="M470.77,406.09c0-.67-1-.67-1,0-.33,12-6.24,23.33-4.51,35.45.09.67,1.1.38,1-.28C464.51,429.29,470.44,418,470.77,406.09Z"/><path class="cls-6" d="M634,461.7c-22,15.89-31.47,43.17-52.11,60.46-.52.43.22,1.17.74.74,20.57-17.23,30-44.48,51.9-60.3C635.1,462.21,634.58,461.31,634,461.7Z"/><path class="cls-6" d="M112.92,474q-3.09,9.86-5.68,19.85a.52.52,0,0,0,1,.28q2.59-10,5.68-19.85C114.13,473.62,113.13,473.34,112.92,474Z"/><path class="cls-7" d="M315.41,229.48c-.89-3.09-2.88-5.88-4.19-8.78-2.23-5-2.13-9.58-1.45-14.89a41.32,41.32,0,0,0,.11-10.94c-.78-6-1.14-10.65,1.32-16.27,2.23-5.1,5-12-.32-16.15a.75.75,0,0,0-.18-.09c.8,0,2.47-5,1.67-4.89-6.84,1-13.17,7.11-16.62,13a37.38,37.38,0,0,1-3.19,5c-2.93,3.56-7.59,5.08-11,8-4.56,3.87-8,9.42-7.59,15.74a12.83,12.83,0,0,0,3.42,8,38.09,38.09,0,0,0,8.37,6.67c1.93,1.14,4.65,1.7,6,3.67,1.53,2.24.06,4.94.24,7.41a7.36,7.36,0,0,0,3.52,5.41,16.79,16.79,0,0,0,6.17,2.13C304.68,233.05,317.67,237.36,315.41,229.48Z"/><path class="cls-7" d="M395.12,194.94c-2.6-4.47-7.17-7-10.77-10.42a17.47,17.47,0,0,1-5.21-10.11c-.63-3.2-1.25-6.13-3.31-8.67-2.92-3.62-8.06-7.23-12.22-8.05-.16,0-9.22-2.92-7.35,3.26.65,2.17,2.92,6.89,3.15,9.24.28,2.74,1.94,5.59,3,8.05a62.21,62.21,0,0,1,3.94,11.4,36.09,36.09,0,0,1,.85,11.34c-.34,3.64-18.93,25-19.36,28.63-.53,4.38,5.66,8,9,8.43,7.09.92,10.05-5.78,13.76-10.66a8.21,8.21,0,0,1,3.38-2.85c2-.75,3.78,0,5.75,0A8.58,8.58,0,0,0,385,222c3.84-3.45,7.5-7.21,9.87-12S397.82,199.61,395.12,194.94Z"/><path class="cls-8" d="M418.44,483.16q-8-43.82-19.6-86.61c1.4-.4,1.38-3.09-.34-3.27-19.29-2-38.65-3.3-58-3.72A165.07,165.07,0,0,0,314,391.35c-10.25,1.41-20.51,1.36-30.81,1.17a1.48,1.48,0,0,0-.68.16,1.41,1.41,0,0,0-2.28.78Q274,414.19,268.09,435q-2.79,9.9-5.51,19.84c-1.8,6.61-4.09,13.28-4.48,20.22-.06,1.15-9.81,31.06-9,31,11.42,11.07,27.89,22.55,41,31.26C322.3,558.84,426,524.81,426,524.79,427.22,524,419.42,483.62,418.44,483.16Z"/><path class="cls-9" d="M281.18,427.69c7.6.13,15.16,1,22.75,1.22a116.15,116.15,0,0,0,23-1.92c13.89-2.34,27.79-5.73,41.95-4.92,12.17.7,24.85,4.16,37,2.12q-3.29-13.44-6.9-26.78c1.41-.4,1.38-3.1-.34-3.28-19.36-2-38.79-3.29-58.24-3.71a166.26,166.26,0,0,0-26.54,1.78c-10.29,1.42-20.58,1.36-30.92,1.18a1.25,1.25,0,0,0-.68.16,1.41,1.41,0,0,0-2.29.77q-5.06,16.71-9.86,33.49C273.81,427.66,277.5,427.62,281.18,427.69Z"/><path class="cls-7" d="M373.73,184.77c-.13-2.59-1.32-3.83-2.19-6-1.16-2.95.58-5,.67-7.95a11.19,11.19,0,0,0-1.82-6.34c-2.95-4.6-8.29-6-13.31-6.29-1.27-.08-1.42,1.69-.46,2.19-2.33,3.26.86,11.63,1.45,14.43,2.52,12,1.36,23.41-.43,35.47-.16,1,1.05,2.09,1.87,1.13a79.93,79.93,0,0,0,12.25-18.59A17.75,17.75,0,0,0,373.73,184.77Z"/><path class="cls-10" d="M393.25,277.45a1.54,1.54,0,0,0-1.39-1.89c-11.61-1.29-26.52-2.59-35-10.88-4.56-4.43-4.44-32.72-4.44-36.9,0-.62-2.79-.44-3.28-.63a1.14,1.14,0,0,0-.92-.1,1.24,1.24,0,0,0-.4.1c-3,1-7.31.17-10.46.2-3.38,0-6.73.21-10.09.5-.75-.29-4.38.37-4.64,1.08-.57,1.52-.21,3.67-.21,5.25,0,5.8.42,11.62-.17,17.4-.55,5.39-1.72,10.93-6.18,14.8-10,8.64-22.73,7.69-35.57,9-1.89.2-1.92,2.93,0,2.76a1.32,1.32,0,0,0,1,1.58c10.44,2.82,20.84,5.88,31.37,8.4,9.95,2.37,16.64,21.89,26.88,22.23,9.72.31,23-18.78,32.36-21.19,7.21-1.85,16.58-4.59,21.32-10.19A1,1,0,0,0,393.25,277.45Z"/><path class="cls-11" d="M322.49,251a29.07,29.07,0,0,0,16.06-1.29c4.78-1.73,10.45-4.94,14-9.55-.15-5.83-.13-10.58-.13-12.23,0-.75-2.79-.53-3.28-.76a1,1,0,0,0-.92-.12,1.25,1.25,0,0,0-.4.12c-3,1.25-7.31.21-10.46.24-3.38,0-6.73.26-10.09.6-.75-.34-4.38.45-4.64,1.31-.57,1.84-.21,4.43-.21,6.34C322.37,240.78,322.59,245.9,322.49,251Z"/><path class="cls-10" d="M362.8,198a1.1,1.1,0,0,0,.1,1.66c-.81,3.13-.13,6.56-1.49,9.54-1.75,3.82.89,10.39,3.73,8.06,4.57-3.75,6.94-12.94,7.22-18.38C372.67,192.78,365.83,195,362.8,198Z"/><path class="cls-10" d="M335.56,56.77c0-.25,0-.5,0-.76-.05-8.63,3.72-20-3-27.06l-.08-.05c-.31-.28,0-4.87-.11-5.65-.31-1.59-1-4-2.32-5.09-3-2.53-3.65,5.82-3.9,7.06l-.18.89c-3.17.22-3.85,8.58-4.15,10.77-.08.56-.14,1.13-.21,1.7C317.62,43.1,315,52.73,314.63,76c-.07,3.92.33,9.75-1.54,13.29-3.6,6.86-34,26.1-41.2,31.23-11.44,8.15-23.21,16-34.23,24.77-11.43,9.1-27.31,19.73-34.36,33.09-.49,1,32.11,34.95,32.06,34.35-.75-10.51,25.79-34.46,31.74-40.34,12.48-12.35,25-24.62,37.45-37,9.64-9.63,20.94-18.3,27.67-30.56C340.36,90,335.77,72.85,335.56,56.77Z"/><path class="cls-10" d="M311.69,212.48c-.07-.46-.14-.89-.19-1.29a47.56,47.56,0,0,0-1.15-5.94,19.14,19.14,0,0,0-.84-2.89c-.31-.69-.91-.91-1.18-1.34-1.52-2.47-4.1-4.29-6.86-2.21-5,3.74,1.47,15,3.84,18.62,1.31,2,3.54,3.89,5.59,1.66C312.37,217.49,312,214.72,311.69,212.48Z"/><path class="cls-10" d="M257.63,235.63a1.11,1.11,0,0,0,0-1.29C246,218,237.1,200.29,227.69,182.25c-2.68-5.14-3.12-26.89-7.75-23-9.66,8.19-20,18.15-23.49,31-3.8,14.18,4.38,29.68,10.83,41.75,7.23,13.54,15.29,26.52,25.51,37.82.29.33,12.23-6.72,16.48-12C253.77,252.31,260.29,243.53,257.63,235.63Z"/><path class="cls-10" d="M346.06,157.69c-10.77-2.29-23.45,1-30.33,8.64-8,9-9.1,22.64-8.9,33.81a86.73,86.73,0,0,0,2.46,19c1.23,5,3.64,11.42,7,15.69,8.12,10.4,26.07,10.54,36.23,3.89,9.38-6.15,10.48-18.31,11.85-28C366.89,192.54,370.37,162.87,346.06,157.69Z"/><path class="cls-7" d="M351.63,162.67l-.71-.16c-1.41-.26-2,2-.6,2.24a2.14,2.14,0,0,1,.27.06,1.08,1.08,0,0,0,1.14.3c9.68,3.06,10.26,18.87,15.06,26.61,1.29,2.07,2.45,2.9,2.82,2C374.49,182.11,368,155.27,351.63,162.67Z"/><path class="cls-7" d="M358.87,182.12c-2.93-2.36-7.38-3.76-11-2.58-2.77.9-4,4.68-.79,6a7.61,7.61,0,0,0,2.76.44c3,.07,6,1.17,9.07,1C362.27,186.81,360.62,183.53,358.87,182.12Z"/><path class="cls-7" d="M327.11,180.58a4.71,4.71,0,0,0-1.06-.25,15.86,15.86,0,0,0-10.25,2.08c-1.33.82-3.32,2.3-3.64,4-.21,1.08,0,2.27,1.36,2,.92-.2,1.85-.38,2.79-.53a43,43,0,0,1,5.31-.51c1.86-.06,5,.09,6.59-1.11,1.07-.81,1.11-2.46.73-3.64A3,3,0,0,0,327.11,180.58Z"/><path class="cls-10" d="M346.83,104.78c6.73,12.26,18,20.93,27.67,30.56,12.42,12.42,25,24.69,37.45,37,5.95,5.88,32.49,29.83,31.74,40.34-.05.6,32.55-33.38,32.06-34.35-7.05-13.36-22.93-24-34.36-33.09-11-8.77-22.79-16.62-34.24-24.77C400,115.38,369.56,96.14,366,89.28c-1.87-3.54-1.47-9.37-1.54-13.29-.4-23.26-3-32.89-6.94-37.41-.07-.57-.13-1.14-.21-1.7-.3-2.19-1-10.55-4.15-10.77l-.18-.89c-.25-1.24-.91-9.59-3.9-7.06-1.28,1.08-2,3.5-2.32,5.09-.15.78.2,5.37-.11,5.65l-.08.05c-6.75,7-3,18.43-3,27.06,0,.26,0,.51,0,.76C343.28,72.85,338.69,90,346.83,104.78Z"/><path class="cls-10" d="M436.91,259c4.65,4.89,17.12,10.89,17.38,10.55,9.28-12.14,16.28-25.76,22.41-39.88,5.46-12.58,12.38-28.71,7.45-42.52-4.47-12.53-18.16-23.3-28.44-30.64-4.93-3.52-1.06,19.92-3.33,25.28-7.94,18.78-15.38,37.14-25.64,54.46a1.1,1.1,0,0,0,.06,1.29C424.78,245.59,432,253.78,436.91,259Z"/><path class="cls-11" d="M347.42,34.92c-.07-.71,1-.71,1.07,0a211.48,211.48,0,0,1,.75,28,.54.54,0,1,1-1.07,0A213.2,213.2,0,0,0,347.42,34.92Z"/><path class="cls-11" d="M352.44,30.87c-.13-.69.9-1,1-.29a124.07,124.07,0,0,1,2,29.31c0,.71-1.11.71-1.08,0A122.22,122.22,0,0,0,352.44,30.87Z"/><path class="cls-11" d="M357.84,44.61c-.09-.71,1-.71,1.07,0a98.84,98.84,0,0,1,.62,16.94c0,.71-1.11.72-1.07,0A99.87,99.87,0,0,0,357.84,44.61Z"/><path class="cls-7" d="M361.2,160l-.18,0c-5.61-9.53-17.77-11.68-27.68-10.51-10.36,1.22-20,5.89-28.59,11.87-2.05,1.43-2.75,3.16-3.37,5.68-.28,1.18.07,2.5-.2,3.65a16.73,16.73,0,0,1-4.4,7.52c-2.59,2.85-6.13,7.48-3.5,11.55,1.79,2.76,3.9,1.66,6.26,2.35.57.19.92,5.87,1.16,6.56a4.17,4.17,0,0,0,2.1,2.52c3.35,1.46,8.64-1.39,10.3-4.4,1.21-2.22,1.23-4.34,3.37-5.87,2-1.43,4.25-1.19,6.43-2.17a12.72,12.72,0,0,0,6.69-7.82,1.2,1.2,0,0,0,.05-.36,18.74,18.74,0,0,1,5.41-3.25c3.36-1.3,7.05-.79,10.36-2.06,7.06-2.71,4.86-14.13,14.19-13.14,0,.09.11.17.15.26.58,1.18,2.15.4,2.06-.71A1,1,0,0,0,361.2,160Z"/><path class="cls-12" d="M356.34,194.55c-3.15.41-4.61.21-8.16-1.44-1.17-.55-2.12.66-1.16,1.53,2.73,2.5,6.38,2.65,9.7,1.85A1,1,0,0,0,356.34,194.55Z"/><path class="cls-12" d="M316.16,195.26c3.29.51,4.81.32,8.46-1.4a1,1,0,0,1,1.23,1.69c-2.79,2.65-6.58,2.75-10,1.81C314.53,197,314.86,195.05,316.16,195.26Z"/><path class="cls-11" d="M334.56,192.9c.17-.72-.9-1.06-1.08-.33-1.19,4.91-.15,9.43.6,14.35.11.74,1.2.46,1.09-.28C334.45,202,333.42,197.59,334.56,192.9Z"/><path class="cls-11" d="M339.73,204.37a16.33,16.33,0,0,0-1.66-3c-.41-.59-1.4,0-1,.56a16,16,0,0,1,1.66,3C339,205.61,340,205.05,339.73,204.37Z"/><path class="cls-11" d="M367.33,199.8l-2.16,5.78c-.27.69.82,1,1.08.3q1.08-2.88,2.17-5.77C368.68,199.42,367.59,199.11,367.33,199.8Z"/><path class="cls-11" d="M308.78,212l-2.33-7.55a.56.56,0,1,0-1.08.31q1.15,3.76,2.33,7.55A.56.56,0,0,0,308.78,212Z"/><path class="cls-11" d="M346.89,215.17a.6.6,0,0,0-.69-.55,63,63,0,0,1-19.48.37c-.37-.05-.54.23-.53.53a.47.47,0,0,0,.05.72c4.72,3.86,11.12,3.83,16.54,1.74a22.87,22.87,0,0,0,2.62-1.19C346.32,216.32,347,216.19,346.89,215.17Z"/><path class="cls-11" d="M331.63,34.92c.07-.71-1-.71-1.07,0a213.2,213.2,0,0,0-.76,28c0,.71,1.11.72,1.08,0A213.2,213.2,0,0,1,331.63,34.92Z"/><path class="cls-11" d="M326.61,30.87c.13-.69-.9-1-1-.29a124.07,124.07,0,0,0-2,29.31c0,.71,1.11.71,1.08,0A122.22,122.22,0,0,1,326.61,30.87Z"/><path class="cls-10" d="M293.35,492.15c-1.85-5.67-6.24-11.71-8.82-15a75.82,75.82,0,0,0-39.23-26.32c-17.19-5-34.14-3.14-51.49-.33-17,2.75-34.64,5.65-50.66,12.29-8.9,3.69-18.69,8.75-23.11,18.09-4.61,9.72-6.12,46.05,12.16,56.72,0,0,1.54-18.11,5.25-18.24,7-.25,14-.42,21-.76,21.76-1,43.46-3.14,65.11-5.49,20.54-2.23,41.07-3.71,61.39-7.71C292.07,504,295.82,499.76,293.35,492.15Z"/><path class="cls-11" d="M321.21,44.61c.09-.71-1-.71-1.07,0a98.84,98.84,0,0,0-.62,16.94c0,.71,1.11.72,1.07,0A99.87,99.87,0,0,1,321.21,44.61Z"/><path class="cls-13" d="M463.73,262.68s0-.07,0-.11c-3.37-7.28-11.23-14.36-17.07-19.5a99.9,99.9,0,0,0-22.09-14.68c-4.24-2.06-7,3.63-9.41,6.49l-24.66,28.76a7.2,7.2,0,0,1-4.2,2.41c-6.12,1.08-12.28,1.82-18.37,3.13-2.73.58-3.23,7.83-4.78,10-6.33,8.71-15.42,17-26.66,16.31-7.59-.48-14.62-4.74-19.68-10.47-4.09-4.63-6.1-15.28-12-17.5-4.46-1.69-8.93-3.38-13.45-4.89a13.49,13.49,0,0,1-5.91-4L263.57,233c-2.45-2.86-5.17-8.56-9.41-6.49a99.9,99.9,0,0,0-22.09,14.68c-5.84,5.14-13.71,12.22-17.07,19.5a.54.54,0,0,1-.05.11c-1.34,2.94.66,6.69,1.82,9.34,1.64,3.73,3.06,7.55,4.67,11.29a265.55,265.55,0,0,0,12.44,25.21c4.17,7.43,8.63,14.69,13.24,21.84,2.3,3.58,4.64,7.13,7,10.69a15,15,0,0,1,2.5,10.28c-2.27,17.73-5.56,35.4-7,53.16-.22,2.78-.83,7.82.54,10.33,1.7,3.13,5.41,3,8.71,3.38,23.15,2.49,46,2.07,69.27-.05,31.83-2.9,64.32-3.94,94.26,9.68a4.31,4.31,0,0,0,4-.13c4.34-2.7,1.46-11.92,1.28-16l-1.44-30.67c-.43-9.19-.55-18.54-.74-27.93a37.15,37.15,0,0,1,5.93-20.83l.06-.09c4.6-7.15,9.07-14.4,13.24-21.84a266.77,266.77,0,0,0,12.44-25.21c1.6-3.74,3-7.56,4.66-11.29C463.07,269.37,465.08,265.62,463.73,262.68Z"/><path class="cls-8" d="M332.81,463.13a7,7,0,0,0-.65-1c-4.09-5.09-12.89-6.37-18.62-8.44-20.39-7.37-21.1-11.57-42.09-14-23.91-2.8-67.3,2.35-91,6.8a2.27,2.27,0,0,0-1.08,4c20.77,18.34,38,42.18,52.29,66.12,1.7,2.85,3.4,5.79,5.92,7.9,5.84,4.89,80.32-18.76,94.29-33.49,2.18-2.31,1.75-9.1,1.93-12C334.08,474.34,335.28,467.41,332.81,463.13Z"/><path class="cls-14" d="M352.2,389a556.35,556.35,0,0,0-27.88-58.48c-.34-.62-1.27-.06-.93.56a557.33,557.33,0,0,1,27.78,58.21C351.43,390,352.47,389.67,352.2,389Z"/><path class="cls-14" d="M422.63,324.3a.54.54,0,1,0-1.07,0,161.51,161.51,0,0,0,1.1,25.16c.08.7,1.16.7,1.07,0A162.75,162.75,0,0,1,422.63,324.3Z"/><path class="cls-14" d="M260.56,320.22a.54.54,0,1,0-1.08,0,150.69,150.69,0,0,1-1.36,26.85c-.1.7.94,1,1,.3A153.08,153.08,0,0,0,260.56,320.22Z"/><path class="cls-14" d="M249.31,262.33a.54.54,0,0,0-1,.29A327,327,0,0,1,254.61,296c.1.7,1.13.4,1-.3A327.4,327.4,0,0,0,249.31,262.33Z"/><path class="cls-14" d="M424.12,299.73c-.56,3.36-1,6.73-1.22,10.13,0,.71,1,.7,1.08,0,.25-3.3.64-6.57,1.17-9.83C425.27,299.33,424.23,299,424.12,299.73Z"/><path class="cls-14" d="M368.56,276a41.87,41.87,0,0,1-14.83,23.68c-.54.43,0,1.4.54,1a43.18,43.18,0,0,0,15.33-24.34C369.75,275.63,368.72,275.33,368.56,276Z"/><path class="cls-10" d="M379,513.34c20.15,4.82,40.62,7.13,61.05,10.19,21.55,3.23,43.15,6.22,64.86,8.13,7,.62,13.93,1.08,20.9,1.6,3.7.28,14,9.46,16.09,6.33,10.38-15.13,7-34.17,2.77-44.07-4.07-9.51-13.66-15-22.41-19-15.75-7.29-33.31-10.9-50.16-14.33-17.22-3.52-34.1-6-51.45-1.76a75.47,75.47,0,0,0-40.2,24.71c-2.71,3.16-7.32,9-9.38,14.61C368.3,507.24,371.9,511.65,379,513.34Z"/><path class="cls-10" d="M332.8,515.66c-5.68-2.9-13.14-2.33-19.3-3.18-24.43-3.33-48.33-10.35-72.16-16.62q-41-10.8-81.71-23l-.77-.23c-15.78-4.73-35.16-3.2-37.54,18.91-1.27,11.79-4,22.82,3.13,32.15C133,534.89,147.22,537.79,160,540.5a513.44,513.44,0,0,0,159.41,7.83c3.19-.34,7.55-.22,10.48-1.78,8-4.23,5.22-21.1,5-28.29A3.18,3.18,0,0,0,332.8,515.66Z"/><path class="cls-8" d="M342.05,461.88c-.35,2.9-7.58,33.51-5.82,36.21,11.24,17.24,86.73,31.24,93.43,27.6,2.89-1.57,5.12-4.12,7.32-6.58,18.55-20.69,40-38.88,64-52.78a2.28,2.28,0,0,0-.37-4.11c-22.8-9.07-46.68-16.46-71-18.46-21.34-1.75-41.21-5.85-62.86-2.66-6.07.9-15.07.41-20.06,4.6a7.94,7.94,0,0,0-.83.81C342.67,450.22,342.61,457.28,342.05,461.88Z"/><path class="cls-5" d="M373.34,517.08l-3.52-.69c-4.14-.84-8.33-1.75-12.14-3.71s-7.06-5.34-11.19-7.08c-5.87-2.46-13.1-3.2-18.56.65-7.38,5.22-14.53,3.84-22.49,1.06-6.37-2.22-19.71-4.31-22-3.43-6.33,2.42-5.14,30.82-4.54,42a4.49,4.49,0,0,0,4.72,4.32c19.18-1.34,37.44-2.08,56.73-4.07,14-1.44,29.84-4.28,43.75-6.44,6.71-1,27.24-8.09,19.74-16C398.6,518.24,380.32,518.47,373.34,517.08Z"/><path class="cls-10" d="M544.79,500.48c-6.46-20.34-25.37-17.67-40.93-12.53l-.76.25q-24.68,8.15-49.19,16.84c-13.14,4.69-26.05,10.09-39.33,14.36-3.36,1.08-37.28,10.1-37.75,7.57,1.73,9.32,5.58,17.57,5.6,27.08,0,4.62,0,9.23-.21,13.8a528.23,528.23,0,0,0,123.42-14.7c12.66-3.08,26.74-6.42,34.79-17.51C547.13,526.41,549.49,515.26,544.79,500.48Z"/><path class="cls-5" d="M263.51,558c-6.77,8.53,22.05,10.91,28.82,11.32,14.05.85,28.11,2,42.17,2.12,19.39.17,37.63-.8,56.86-1.27a4.52,4.52,0,0,0,4.32-4.74c-.38-11.16-1.95-38.77-8.21-41.37-6.94-2.89-15.49,2.67-21.64,5.48-7.68,3.51-14.68,5.56-22.49,1-5.77-3.32-12.91-1.9-18.53,1.09-4,2.12-6.77,5.71-10.53,8.1s-24.88,5.72-28.93,7l-3.45,1C275.07,549.74,268.22,552,263.51,558Z"/><path class="cls-15" d="M386.27,523.46c-1.6-2.6-5-1.66-7.36-.72L361,528.91c-3,1-6.14,2.45-9.29,3-3.44.54-6-.71-8.92-2.41-3.71-2.18-7.34-3.34-11.63-2.46a25.63,25.63,0,0,0-9.74,4.57c-1.42,1-2.62,2.28-4,3.34a17.27,17.27,0,0,1-4.7,2.45c-2.33.84-4.76,1.35-7.12,2.08-.35.11-.78.36-.7.73s.61.39,1,.31a50.41,50.41,0,0,0,8.52-2.49c3.4-1.47,5.93-4.44,9-6.45a20.28,20.28,0,0,1,10.7-3.75c5.21-.07,8.48,3.86,13.23,5.07s9.77-1.43,14.1-2.93L378.71,524l.17,0,.39-.17.1,0c1.86-.75,4.75-1.7,6,.28A.54.54,0,0,0,386.27,523.46Z"/><path class="cls-11" d="M210.21,483.12c-16-7.29-32.4-14.63-50.13-15.05a.56.56,0,0,0,0,1.11c17.53.42,33.8,7.69,49.59,14.9C210.3,484.36,210.85,483.41,210.21,483.12Z"/><path class="cls-14" d="M261.67,451.92c-.54-.43-1.31.35-.76.78A55.07,55.07,0,0,1,281.08,497a.54.54,0,1,0,1.07,0A56.06,56.06,0,0,0,261.67,451.92Z"/><path class="cls-14" d="M390.39,476.85l-9,20.13c-.29.65.64,1.21.93.56l9-20.13C391.6,476.76,390.68,476.2,390.39,476.85Z"/><path class="cls-16" d="M299.71,199.16c-2.31.91-5.33,1.73-7.76.83-1.94-.71-2.59-2.71-4.24-3.75a6.68,6.68,0,0,0-7.44.36c-.54.39,0,1.29.53.9a5.68,5.68,0,0,1,6.38-.36c1.46.94,2.09,2.69,3.65,3.51,2.72,1.44,6.49.58,9.15-.48C300.6,199.92,300.33,198.91,299.71,199.16Z"/><path class="cls-16" d="M392.07,198.6c-2.33,1.05-3.92.48-6.24.33a3.7,3.7,0,0,0-2.53.65,20,20,0,0,0-2.47,2.72c-3,3-5.69-.13-6.66-3-.21-.63-1.22-.36-1,.28,1,3.14,3.73,6.66,7.38,4.39,2.2-1.36,2.54-4,5.59-3.89,2.45.06,4.1.52,6.46-.54C393.21,199.22,392.67,198.32,392.07,198.6Z"/><path class="cls-16" d="M356.17,156.37c-.16-.66-1.17-.38-1,.28.38,1.56.71,5.63-1.68,5.89-.66.08-.67,1.12,0,1.05C356.73,163.23,356.74,158.74,356.17,156.37Z"/><path class="cls-16" d="M339.74,155.74c-10.84-.62-19.78,6.63-24.73,15.77-.57,1-1,2.14-1.61,3.16-1.21,2-3.37,1.82-5.41,2.08a15.92,15.92,0,0,0-5.86,2,16.39,16.39,0,0,0-7.73,10.1.52.52,0,0,0,1,.27,15.51,15.51,0,0,1,9.84-10.65c2.14-.74,4.4-.36,6.48-1,1.59-.48,2.35-1.79,3.06-3.2,4.87-9.72,13.3-18.14,25-17.48C340.41,156.82,340.41,155.78,339.74,155.74Z"/><path class="cls-16" d="M310.92,165.55a9.12,9.12,0,0,0-2,6.14c0,.67,1.07.67,1.05,0a8,8,0,0,1,1.73-5.4C312.08,165.76,311.34,165,310.92,165.55Z"/><path class="cls-16" d="M298.42,216.32a6.33,6.33,0,0,1-4.31-1.46c-.51-.43-1.26.31-.74.74a7.45,7.45,0,0,0,5.05,1.77C299.09,217.35,299.09,216.3,298.42,216.32Z"/><path class="cls-17" d="M508.62,555.15c.22-.63-.79-.91-1-.27-.74,2.07-1.47,4.15-2.21,6.23C505.18,561.75,508.62,555.15,508.62,555.15Z"/><path class="cls-1" d="M195.4,545.37c-1.61-11.53-13.65-12.45-22.83-10.72a.48.48,0,0,1-.45-.77A65.31,65.31,0,0,0,179,521.8c1.79-4.16,4.07-9.28,3.13-13.94-2.18-10.84-15.42-8.78-22.59-5.64-10.2,4.48-18.15,12.93-25.25,21.47-5.94,7.16-11.75,14.44-17.54,21.73a.48.48,0,0,1-.79-.52,85.2,85.2,0,0,0,7.63-28.52c.77-10.15.14-28.89-12.6-31-12.17-2-19,10.91-20.26,21.4a145.21,145.21,0,0,0,0,29,1.54,1.54,0,0,1-3,.66q-5.81-17.45-12.35-34.61c-5.53-14.5-10.64-34.5-25-42.41-4.92-2.72-12.21-4.37-17.07-.6-5.13,4-5.24,12.24-4.54,18.14,1.06,9,4.89,17.24,9,25.11a238.52,238.52,0,0,0,14,23.92,97.85,97.85,0,0,0,19.09,21.23c7.36,6,15.27,12.88,24.47,15.4,9,2.45,62.35,4.26,79.12,2.08C183.91,563.4,197.12,557.72,195.4,545.37Z"/><path class="cls-17" d="M574.15,543.2c-.64-.21-.92.8-.28,1,2,.67,2.35,3.14,1.53,4.85a11.23,11.23,0,0,1-3.75,3.82c-.53.39,0,1.3.53.9,2-1.47,4.29-3.22,4.65-5.84A4.23,4.23,0,0,0,574.15,543.2Z"/><path class="cls-1" d="M477,539a52,52,0,0,0,6.25-9.34c1.57-3.11,6.49-10.95-.33-10.81-14.48.3-27.94,13.09-37.68,22.94a151,151,0,0,0-14.81,17.4c-1.85,2.54-3.59,5.16-5.28,7.82.39-5.38.33-10.9-1.05-15.88-.91-3.29-3.69-9.53-7.93-8.58-9,2,1.5,34,3,39.17.3,1,12.86,2.29,18.12.24,5-2,9.79-4.25,14.93-5.8,5.62-1.69,11.39-3.13,16.54-6.1,4.44-2.55,15.18-13.65,4.15-13.92-6.45-.15-12.64,1.81-18.49,4.62A145.79,145.79,0,0,0,477,539Z"/><path class="cls-1" d="M572.05,528c5.88-3.48,12.24-6,18.1-9.52,4.41-2.64,9.36-6,11.1-11.29,3.93-11.84-11.87-12.45-18.89-10.81-12,2.8-22,10.89-31.05,19.27a.26.26,0,0,1-.43-.15,5.82,5.82,0,0,0-3.13-4.32c-5.63-2.77-12,4.2-15.55,7.67-12.29,12-21.06,27.2-27.16,43.36a1,1,0,0,0-.06.44c-2.19,3,2.8,3.32,4.6,3.51,15.52,1.59,31.93-2.42,46.9-6.3a44.73,44.73,0,0,0,13.67-5.71c2.32-1.54,6.7-4.48,6.05-8-.58-3.12-4.28-2.73-6.65-2.71a61,61,0,0,0-15.46,2.26c-1.42.39-2.83.83-4.22,1.3a.27.27,0,0,1-.22-.48,54.29,54.29,0,0,0,5.73-4.31C561,537.4,565.66,531.81,572.05,528Z"/><path class="cls-1" d="M259.74,584.43c.91-15.68-2-31.48-6.9-46.27-2.13-6.34-4.6-12.69-8.32-18.23-2.15-3.19-7.85-10-11.71-10.59-6.41-1,2.73,36.81,4.12,41-.64-.65-1.27-1.35-1.91-2-2.22-2.32-5-5.66-8.22-6.46-6.6-1.6-6.07,5.8-5,10.22A43.51,43.51,0,0,0,234,573c3.86,3.67,8.26,6.63,12.52,9.76,2.32,1.7,12.21,12.82,12.94,4.82C259.6,586.53,259.67,585.48,259.74,584.43Z"/><path class="cls-1" d="M660.65,492.31a4.24,4.24,0,0,0-.88-1.47c-5.22-5.49-18.67,6.19-22.47,9.51-.39.34-.91-.17-.66-.63,3.08-5.53,5.57-11.59,5.15-17.44-.26-3.65-2.25-7.09-5.83-7.55-4.63-.6-7.35,3.91-9.84,7.3A132.73,132.73,0,0,0,618,494.47c-6.62,11.51-12.34,24.42-14.15,38a.48.48,0,0,1-.07.2c-.22.32-.87,1.65-.12,1.88a.92.92,0,0,0,1.7.07.38.38,0,0,1,.29-.25c6-.8,26.77-5.23,30.74-8.07,4.27-3,8.77-5.69,12.2-9.75,4.6-5.46,10.79-12.77,12.22-20.29A7.92,7.92,0,0,0,660.65,492.31Z"/><path class="cls-17" d="M194.13,549.12c-1.15,14.68-21,14-31.5,14.36q-20.41.62-40.83-.48c-.67,0-.67,1,0,1q23.51,1.23,47,.25c10.15-.44,25.32-2.17,26.35-15.18C195.23,548.45,194.18,548.45,194.13,549.12Z"/><path class="cls-17" d="M164.89,513.56a326.37,326.37,0,0,0-52,45.09c-.46.49.28,1.23.74.73a325.63,325.63,0,0,1,51.75-44.92C166,514.08,165.44,513.17,164.89,513.56Z"/><path class="cls-17" d="M176.56,544a295.78,295.78,0,0,0-39.86,8.12.52.52,0,0,0,.28,1,295.13,295.13,0,0,1,39.58-8.09C177.22,545,177.23,543.93,176.56,544Z"/><path class="cls-17" d="M104.89,524c.78-8.54,5.21-17,2.21-25.55-.23-.63-1.24-.36-1,.28,3,8.42-1.48,16.86-2.25,25.27-.81,8.93,2,17.83.18,26.72-.13.66.87.94,1,.28C106.92,542,104.07,533,104.89,524Z"/><path class="cls-17" d="M82.81,543.62C63.21,524.15,53.35,497.78,44,472.36c-.23-.63-1.25-.36-1,.28,9.38,25.58,19.33,52.12,39,71.72C82.55,544.83,83.29,544.09,82.81,543.62Z"/><path class="cls-17" d="M241.56,564.24A42.77,42.77,0,0,1,223.49,552c-.45-.5-1.19.24-.74.74a43.91,43.91,0,0,0,18.54,12.51C241.92,565.47,242.2,564.46,241.56,564.24Z"/><path class="cls-17" d="M470.29,528.37c-6.15,7.83-15.82,11.85-21.55,20.11-3.29,4.76-6,9.72-9.78,14.18s-7.9,8.52-12,12.59c-.48.47.26,1.21.74.74,4-4,8.08-7.94,11.75-12.25a118.42,118.42,0,0,0,9.24-13.21c5.78-9,15.9-13.15,22.39-21.43C471.44,528.58,470.71,527.84,470.29,528.37Z"/><path class="cls-17" d="M462.32,561.87a43.16,43.16,0,0,0-15.1,6c-.57.36-.05,1.26.53.9a42.45,42.45,0,0,1,14.85-5.87C463.26,562.75,463,561.74,462.32,561.87Z"/><path class="cls-17" d="M549.72,517.2c-2.39,11.55-10.13,20.69-17.68,29.36-.44.51.3,1.25.74.74,7.66-8.8,15.52-18.1,18-29.83C550.87,516.82,549.86,516.54,549.72,517.2Z"/><path class="cls-17" d="M586.06,504.47c-21.6,10-36.95,28.89-51.5,47.08-.41.52.32,1.26.74.74,14.5-18.12,29.77-36.92,51.29-46.91C587.2,505.09,586.67,504.19,586.06,504.47Z"/><path class="cls-17" d="M631.64,486.53a237.39,237.39,0,0,0-20.28,52.18.52.52,0,0,0,1,.28,236.85,236.85,0,0,1,20.17-51.94C632.85,486.46,632,485.93,631.64,486.53Z"/><path class="cls-17" d="M650.3,497.42a146.73,146.73,0,0,0-29,31.89c-.38.56.53,1.08.9.52A145.87,145.87,0,0,1,651,498.16C651.56,497.73,650.82,497,650.3,497.42Z"/></g></g></svg>