<svg xmlns="http://www.w3.org/2000/svg" viewBox="0 0 822.28 696.53"><defs><style>.cls-1{fill:#452b2b;}.cls-2{fill:#5d5ea3;}.cls-3{fill:#7286e9;}.cls-4{fill:#e5eaff;}.cls-5{fill:#eb8382;}.cls-6{fill:#ed875f;}.cls-7{fill:#fadac3;}.cls-8{fill:#783e3e;}.cls-9{fill:#fff;}.cls-10{fill:#f9b98e;}.cls-11{fill:#d88463;}.cls-12{fill:#d6cb91;}.cls-13{fill:#442523;}.cls-14{fill:#bda377;}.cls-15{fill:#9c915a;}.cls-16{fill:#211717;}</style></defs><g id="Layer_2" data-name="Layer 2"><g id="Layer_1-2" data-name="Layer 1"><path class="cls-1" d="M822.18,357.37c0,.06,0,.11,0,.17a84.13,84.13,0,0,1-1.92,14.35q-1.68,7.53-3.73,15c-3.06,11.18-6.67,22.26-10.71,33.15-.14.41-.3.82-.45,1.23-3,8-6.18,15.92-9.54,23.71-24.63,57-59.14,116.47-101.06,162.66-40,44.12-94.21,70.52-152.37,82-.56.12-1.11.23-1.67.33C470.67,703.51,395,695.53,331.3,671c-60.32-23.22-117-75.73-154.46-127.72-17.47-24.28-24.68-52.12-39.5-77.72q-3.92-6.75-8.34-13.18a157.73,157.73,0,0,0-14.5-18c-21.67-23.13-48.68-40.27-71.41-62.25C19.55,349.33,3.6,321.6.32,288.65c0,0,0-.07,0-.11a65.76,65.76,0,0,1,1.51-21.79q1.24-5.17,2.79-10.28a190.82,190.82,0,0,1,17.22-40.09c11.43-19.93,28.78-34.61,46.06-49.4,1.93-1.65,3.87-3.31,5.82-4.95C91.8,146.67,110.86,131.3,131,119q5.58-3.62,11.33-6.8a265.43,265.43,0,0,1,42.45-18.5c21.93-7.6,44.17-14.76,67.05-19.1,43.27-8.22,87.85-8.11,130.48,3.57C507.37,112.47,606.82,36,659.79,148.58q3,6.42,5.85,13.68c8,20.72,67.78,22.49,138.94,136.2q2.11,3.38,4.23,6.87A92.72,92.72,0,0,1,822.18,357.37Z"/><path class="cls-2" d="M598.8,619c-9.46-4.4-20.6-6-30.59-2.4-5.5,2-10.47,5.14-15.26,8.41-5,3.44-10.78,6.11-16.24,8.78a123.14,123.14,0,0,1-33.19,11.06c-10.87,1.89-21.92,2.38-32.92,3.09-20.23,1.3-40.68,3.58-57.48,15.93A98.15,98.15,0,0,0,395,680.74a46.89,46.89,0,0,0-5.08,7.42c83.19,17.33,176.24,8.66,248.55-34.61C627.12,640,614.8,626.45,598.8,619Z"/><path class="cls-3" d="M822.18,357.37c0,.06,0,.11,0,.17a84.13,84.13,0,0,1-1.92,14.35q-1.68,7.53-3.73,15c-3.06,11.18-6.67,22.26-10.71,33.15-1-3.06-2.25-6.39-2.8-8.26-2-7-5.44-13.43-7.5-20.37-1.58-5.32-2.41-11.46.51-16.48,2.72-4.66,7.91-7.22,12.75-9.09C809.74,365.47,816.82,360.82,822.18,357.37Z"/><path class="cls-2" d="M804.58,298.46c-2-.56-4-1.22-6-2a49.66,49.66,0,0,1-17.11-11c-4.29-4.23-7.85-9.11-11.54-13.85A71.82,71.82,0,0,0,758,259c-4.49-3.51-9.69-5.76-14.82-8.12-5.48-2.51-11-5.11-15.66-9-5.35-4.51-8.33-10.12-10.05-16.84-2.74-10.71-4-22.45-13-30.07-6.65-5.66-15.4-7.49-23.58-9.82-9.24-2.62-18.86-6.55-23.66-15.46-2.13-4,.52-14.24,2.6-21q3,6.42,5.85,13.68C673.68,183,733.42,184.75,804.58,298.46Z"/><path class="cls-4" d="M387.94,275.23c-4.14-4.66-9.92-7.43-14.5-11.59-5.64-5.15-6.71-12.64-11.18-18.52-9.79-12.88-27.59-8.87-41.09-6.38-8,1.48-17.07,2.71-24.53-1.48-6.57-3.7-10.06-10.85-16-15.35-5.53-4.21-12.45-4.82-19.14-3.72a53.3,53.3,0,0,0-20.91,8c-13.38,9.15-17.77,27.28-15.28,42.56,2.34,14.43,11.67,30.47,27.43,32.54.8.1.79-1.16,0-1.26-14.8-1.94-23.56-17.13-26-30.56-2.59-14.06.83-30.88,12.18-40.42,5.79-4.86,13.54-7.65,20.85-9.21,7.77-1.66,15.68-1.06,21.79,4.48,4.41,4,7.59,9.23,12.45,12.76s11,4.55,16.93,4.28c14.52-.64,30-8.31,43.91-.84,7,3.75,8.92,10.39,12.31,17,2.48,4.82,6.37,8.12,10.7,11.23C382.45,272,388,275.34,390,281c2.81,7.76-2.66,15.38-9.08,19.24-6.17,3.7-13.72,5.59-20.73,6.9a57.48,57.48,0,0,1-24.87-.55c-7.25-1.81-14.7-4.14-22-1s-12.46,8.94-20,11.41A36.79,36.79,0,0,1,251,301.56c-.43-.68-1.52-.05-1.09.63a38,38,0,0,0,35.62,17.66,40.13,40.13,0,0,0,19.2-7.43c3.21-2.24,6.37-4.75,10.08-6.13,4.95-1.84,10.11-1,15.1.17,8.38,2,16.06,3.63,24.75,2.72A79.43,79.43,0,0,0,377,303.56c6.21-2.64,12-7,14.2-13.62A14.78,14.78,0,0,0,387.94,275.23Z"/><path class="cls-2" d="M137.34,465.57q-3.92-6.75-8.34-13.18a157.73,157.73,0,0,0-14.5-18c-21.67-23.13-48.68-40.27-71.41-62.25C19.55,349.33,3.6,321.6.32,288.65c0,0,0-.07,0-.11a65.76,65.76,0,0,1,1.51-21.79q1.24-5.17,2.79-10.28a20.26,20.26,0,0,1,5.69-3.1c13.12-4.48,18.9,12.75,20.11,22.53,1.32,10.65.33,22.22,5.26,32.09,4.63,9.26,14.19,10.46,23.2,12.88,5.58,1.49,10.51,4,13.74,9,3.41,5.25,4.69,11.59,5.32,17.73.59,5.77.58,11.57.94,17.35a116.33,116.33,0,0,0,2.63,16.79c2.35,11,6.22,22.37,14.63,30.32S113.9,426.32,123.22,433C136.65,442.51,137.93,454.76,137.34,465.57Z"/><path class="cls-2" d="M588.65,322.66c2.62-5.08,5.27-10,5-16.45a29.15,29.15,0,0,0-15.6-24.6c-7-3.68-17.67-6.4-21.88,2.19-2.29,4.67-1.78,11.54-2.8,16.66a67.59,67.59,0,0,1-6.31,18.84c-8.77,16.38-26,25.51-44.45,26.49.59-.62-.13-1.74-1-1.76a2.53,2.53,0,0,0-2,1.37,11.25,11.25,0,0,0-1.27,5.34c-1,16.9,5.07,33.95,21.85,41.27,24.07,10.5,58.28.51,63.18-27.51C585.94,349.87,581.48,336.52,588.65,322.66Z"/><path class="cls-3" d="M361.62,429.39c-8.43-5.75-20.26-5.21-30-7.93-10.8-3-21-8.28-28.73-16-5.83-5.9-11.93-16.76-22.44-14.31-12.64,3-13,19.88-7.62,28.36,9.91,15.67,33.73,12.37,49.15,19.74,9.22,4.41,16.73,12.12,27.27,13.89,6.83,1.14,14.83-1,18.19-7.11S367.07,433.11,361.62,429.39Z"/><path class="cls-3" d="M351.31,202.46c-7.66-7.72-19-6.66-27.92-1.77-11.6,6.37-18.39,20-31.41,23.88-6.53,2-13.4,1.27-19.89,3.67-18.49,6.84-28.87,28-26.69,47.07a28.7,28.7,0,0,0,6.95,16.18,15.88,15.88,0,0,0,7.47,4.81,24.35,24.35,0,0,0,7.58.34c3.69-.23,5.47-7.25,5.89-10.29a38,38,0,0,1,9.57-21c9.58-10.79,23.05-18,35.8-24.38,10.35-5.16,24.36-8.24,32.71-16.73A15,15,0,0,0,351.31,202.46Zm-95.17,88.9a21.29,21.29,0,0,1-2.95-2.74,1.47,1.47,0,0,0,1.12-.53,26.26,26.26,0,0,0,5.55,5.24A14,14,0,0,1,256.14,291.36Z"/><path class="cls-3" d="M717.44,368.42c5.33-6.1,1.92-21.74.83-29.44-3.12-22.22-13.4-44.42-24.46-65.38-15.83-30-39.75-55.09-71.62-76.36-13.64-9.1-30.81-18.35-48.76-18.94-3.76-.12-8.1.39-9.73,2.93-1.15,1.79-.54,4,.33,6,11.75,27,57.87,31.83,71.55,57.81,4.79,9.11,4.08,19.28,9.2,28.29,6,10.59,19,13.39,27.62,21.89a119.79,119.79,0,0,1,10.74,12.9c13.42,17.57,24.17,36.34,31.1,55.78C714.89,365.77,715.5,367.23,717.44,368.42Z"/><path class="cls-5" d="M657.77,465.73c-17.45-3.24-38.85,5.27-46.27,23.65-9.1,22.55,5.31,52.78,33.67,48.37,20-3.11,37.88-16.41,37.73-36.13C682.76,483.64,671.48,468.27,657.77,465.73Z"/><path class="cls-3" d="M370.23,593.14a7.83,7.83,0,0,0,.15-2.29,15.08,15.08,0,0,0-1.73-5.43,52.74,52.74,0,0,0-20.45-22c-10.26-6.07-21.21-6.73-32.71-8.47-5.18-.78-10.42-1.9-15-4.53-4.77-2.73-8.26-6.94-12.09-10.78-13.32-13.36-33.65-13.58-48.94-24.1-8.38-5.77-14.37-13-20.52-21a41.5,41.5,0,0,0-8.44-8.76c-4.18-3-10.32-5.89-8.84,2a67.61,67.61,0,0,0,14.74,30.81c8.38,9.93,19.64,15.87,30.24,23.05,9.37,6.34,15.58,15.15,24.26,22.12,7.69,6.17,17.28,10.12,26,14.58l30,15.32c6.59,3.37,13.29,7,20.59,8.58C354,603.59,368.48,601.21,370.23,593.14Z"/><path class="cls-2" d="M321.14,137c-27.94-5.16-59.23-2.52-86.2,6.43-12.43,4.13-24.35,10.71-32.88,20.66-.58.68-1.17,1.62-.73,2.39s1.88.67,2.86.3c17.54-6.54,36-11.51,53.81-2.73,6.18,3.06,12.19,5.86,19.27,5.3,7.23-.57,13.9-3.81,20.43-6.71L322,151.79c3.93-1.75,14.13-5.79,8-11.63-1.67-1.6-4-2.2-6.31-2.66Z"/><path class="cls-4" d="M708.68,488.24c-10.18-7.09-23.32.44-31,7.69-5.14,4.87-9.56,10.45-14.71,15.32a79.17,79.17,0,0,1-17.74,13.14c-13,6.68-28.1,6-42.31,6.83-7.29.43-14.65,1.21-21.62,3.51-7.58,2.5-14.38,6.77-21.09,11l-11.55,7.32c-2.35,1.49-5,3-6.47,5.44-1.9,3.17.09,7.58,3.33,9.11,3,1.43,6,1.53,9.33,1.78a106.86,106.86,0,0,0,11.32,0c7.29-.24,14.58-.81,21.83-1.69a255.37,255.37,0,0,0,43-9.06,240.32,240.32,0,0,0,40.27-16.15c12.13-6.25,23.89-14.08,32.57-24.76C709.72,510.54,719.26,495.61,708.68,488.24Zm-8.48,31.81c-8.57,9.27-19.32,16.18-30.51,21.86a239.87,239.87,0,0,1-36.81,14.85,251.52,251.52,0,0,1-43.13,9.47q-10.87,1.41-21.83,1.85a108.54,108.54,0,0,1-11.12,0c-1.88-.13-3.76-.33-5.62-.64-2.75-.47-5.27-.91-7.16-3.17a4.44,4.44,0,0,1-.72-5.12,11.6,11.6,0,0,1,3.5-3.37c2.86-2,5.89-3.76,8.83-5.62,5.57-3.52,11.08-7.21,16.93-10.27,11.74-6.15,24.35-7.19,37.37-7.73,11.15-.46,22.65-.85,33.06-5.31,11.07-4.75,20.23-13.53,28.24-22.29s19-20.66,32.26-17.26C721,491.76,707.33,512.34,700.2,520.05Z"/><path class="cls-4" d="M609.23,183.28a25.87,25.87,0,0,0-4.09-3.23,47.64,47.64,0,0,0-10-4.9,42.74,42.74,0,0,0-9.34-2.13c-5.32-.59-12.53,1.92-9.66,8.64,1.37,3.21,4.6,4.8,7.75,5.81,4.7,1.5,9.8,2.31,13.53,5.84,4.19,4,8.6,15,16.21,9.47,5-3.66,1.72-10.83-.82-15A23.25,23.25,0,0,0,609.23,183.28ZM605,200.93a13.23,13.23,0,0,1-1.79-2c-1.31-1.74-2.31-3.7-3.73-5.35-2.92-3.42-7.32-5.19-11.66-6.35-2.52-.67-5.13-1.21-7.34-2.59a7.47,7.47,0,0,1-3.61-5.18,4.53,4.53,0,0,1,3.15-4.87,11.6,11.6,0,0,1,5-.45,39.7,39.7,0,0,1,19.81,6.95,30.64,30.64,0,0,1,6.22,6.08,15.45,15.45,0,0,1,3.73,8.69c.14,1.87.12,3.64-1.2,5a6,6,0,0,1-5.13,1.75A6.93,6.93,0,0,1,605,200.93Z"/><path class="cls-4" d="M129,374.81c-4.42-4.69-9.09-9.34-12-15.17-3.08-6.15-2.85-13-4.16-19.56-2.4-12-13.81-20.11-13.58-32.86.2-11.46,7.76-23.55,3.49-35-1.33-3.56-4-7-7.89-7.85-4.35-.92-8.52,1.71-10.95,5.17-3.41,4.86-4.62,11.42-5.71,17.13A102.86,102.86,0,0,0,76.39,305a114.37,114.37,0,0,0,6.13,37.71c7.83,23.08,22.66,43.14,40.91,59.09,0,.14,3,2.54,5.53,5,1.62,1.58,2.42,3.52,4.09,3.81,4.07.7,6.75-3.4,7.8-6.74C144.39,392.66,136.17,382.41,129,374.81ZM137.14,408c-2.76,2.44-4.77.65-5.72-.65a14.32,14.32,0,0,0-2.45-2.47c-34.42-28-57.87-71.45-49.77-116.7,1-5.53,2.12-11.72,5-16.63,3.47-6,11.18-8.45,15.67-2.11,6.68,9.43.25,22.44-1.34,32.48a28,28,0,0,0,.85,14c1.61,4.48,4.41,8.35,6.93,12.34a38.65,38.65,0,0,1,6,16.47c.64,5,1.06,10,3.2,14.69,5.18,11.28,16.76,17.87,22.27,28.91C140.54,393.87,142.47,403.24,137.14,408Z"/><path class="cls-4" d="M127.48,235.52c-1.43-7-11.3-1.49-14.1,1.15-4.48,4.21-7.51,11.71-5,17.63,2.7,6,9.32,4.18,11.56.59a9,9,0,0,0,1.06-3.63c.45-3.34.61-5.37,2.9-8.09C125.72,241,128.12,238.65,127.48,235.52Zm-7.11,11.07c-.51,1.76-.36,3.61-.72,5.39a5.43,5.43,0,0,1-2.41,3.79,8,8,0,0,1-2.31.76c-2.28.7-4.39.07-5.77-3.83-1.11-3.92.18-8.42,2.33-11.79s7.9-8.8,12.51-7.35C130.61,235.65,121.28,243.49,120.37,246.59Z"/><path class="cls-2" d="M385.41,440.67c-6.88-3.66-15.62.06-22.11-4.5-3.14-2.79-7.1,2.12-3.48,5.22,2.65,2.26,7.41,2.73,10.64,3.69,4,1.17,8.09,2.84,12.2,3.42,2.13.3,5,.12,6.17-2.07C390.16,443.89,387.4,441.72,385.41,440.67Zm-1,6.72a10.18,10.18,0,0,1-2.51-.29c-2.17-.46-4.31-1.22-6.44-1.85l-7-2.08-3.53-1c-.68-.19-1.36-.4-2-.61-1.25-.38-3.23-2.45-2.23-3.9.66-.95,2.08-.15,2.83.19a25.77,25.77,0,0,0,10.11,2.05c3.51.12,7.13.15,10.41,1.56a7,7,0,0,1,1.57.79c.78.51,1.62.72,2.08,1.65.76,1.54-.08,2.27-.71,3S385.33,447.38,384.44,447.39Z"/><path class="cls-6" d="M154.52,134.4c-.85-2.75-7-13.68-12.24-22.19q-5.76,3.18-11.33,6.8c-20.09,12.29-39.15,27.66-57.24,43l.42.27c16.08,16.79,47.69,24.46,66.52,9.7C151.63,163.4,158.76,148.3,154.52,134.4Z"/><path class="cls-2" d="M715.74,430.51c-.18-2-1.86-3.67-4-3-6.24,1.89-8.62,8.26-7.25,14.26C707.82,456.19,716.39,437.21,715.74,430.51Z"/><path class="cls-5" d="M304.7,481.56c-2.68-3.39-6.69-6.47-9.17-6.47-5.12,0-6,4.87-3,9,1.76,2.42,4.5,3.92,7.23,5.13a9.46,9.46,0,0,0,4.2,1.05C309.17,490,307.86,485.56,304.7,481.56Z"/><path class="cls-2" d="M197.36,179.6a2.88,2.88,0,0,0-.77-.62,1.86,1.86,0,0,0-2.42-.58,9.31,9.31,0,0,0-4,4,21.09,21.09,0,0,0-1.6,2.22,1.71,1.71,0,0,0,.5,2.38,1.88,1.88,0,0,0,2.36,1.54,11.23,11.23,0,0,0,4.64-3.32C197.26,183.76,198.83,181.31,197.36,179.6Z"/><path class="cls-2" d="M183.3,281.5a.31.31,0,0,1,0-.08.83.83,0,0,1,0-.15,2.25,2.25,0,0,0-.24-.52l-.14-.18a2.57,2.57,0,0,0-.28-.29l-.11-.07a1.69,1.69,0,0,0-2.63.54,15.42,15.42,0,0,0-1,12c.46,1.39,2.72,2,3.44.45A16.92,16.92,0,0,0,183.3,281.5Z"/><path class="cls-2" d="M349.38,106.31l-.18,0a1.92,1.92,0,0,0-1-.3,11.33,11.33,0,0,0-5.86,1.44,1.9,1.9,0,0,0,.45,3.44,9.76,9.76,0,0,0,7-1.11C351.11,109,351.05,106.57,349.38,106.31Z"/><path class="cls-2" d="M187.12,253.27a11.26,11.26,0,0,0-1.45,2,9.68,9.68,0,0,0-1.59,5.52,1.91,1.91,0,0,0,3.22,1.33,10,10,0,0,0,3-7.55A1.91,1.91,0,0,0,187.12,253.27Z"/><path class="cls-2" d="M160.44,424.27c.22-2.23-1.05-5-4.92-5.59-3.21-.48-1,5.51-.21,6.6C157.87,428.71,160.18,426.88,160.44,424.27Z"/><path class="cls-2" d="M44.68,282.28a1.9,1.9,0,0,0-3-.38,7.05,7.05,0,0,0-1.61,3.29,2.59,2.59,0,0,0-.56,1.71,3.92,3.92,0,0,0,.5,1.55c.12.23.41.52.41.78a1.9,1.9,0,0,0,3.21,1.34A6.81,6.81,0,0,0,44.68,282.28Z"/><path class="cls-2" d="M68.91,210.81c-.16-1.23-1.84-1.69-2.77-1.13a9.5,9.5,0,0,0-4.59,7.8,2.85,2.85,0,0,0,.34,3,1.58,1.58,0,0,0,1.21.92c1.3.5,2.47-.38,3.36-1.45A11.43,11.43,0,0,0,68.91,210.81Z"/><path class="cls-2" d="M517.57,459.26a12.24,12.24,0,0,0-6.9,2,1.9,1.9,0,0,0,0,3.25,4.89,4.89,0,0,0,.51.26,1.81,1.81,0,0,0,.52.2,4.94,4.94,0,0,0,4.48-.64,3,3,0,0,0,.27-.23,10.1,10.1,0,0,0,2.45-1.64A1.91,1.91,0,0,0,517.57,459.26Z"/><path class="cls-2" d="M594.63,394.25a1.9,1.9,0,0,0-2.77-1.13,8.8,8.8,0,0,0-4.15,9.24,1.91,1.91,0,0,0,.16.51,8.79,8.79,0,0,0,.21,1.23,1.9,1.9,0,0,0,3.15.83A11.75,11.75,0,0,0,594.63,394.25Z"/><path class="cls-2" d="M566.64,251.46a5.92,5.92,0,0,0-6.57-4.32,2.55,2.55,0,0,0-2.16,1.53,3.16,3.16,0,0,0,.49,2.49C560.27,254.4,568.36,258.08,566.64,251.46Z"/><path class="cls-2" d="M578.29,265.39a3.35,3.35,0,0,0-3.38.64c-1.17,1.22-.8,3.26.06,4.72a6.87,6.87,0,0,0,3.38,3c2.5,1,5.63-.29,5.08-3.26-.39-2.15-3-4.37-5-5.08Z"/><path class="cls-2" d="M619.74,277.67l-1.88-3.14a1.89,1.89,0,0,0-3.26,1.9l1.89,3.15a1.88,1.88,0,1,0,3.25-1.91Z"/><path class="cls-2" d="M759.71,314.54c-.22-1-.44-2.09-.65-3.13a1.89,1.89,0,1,0-3.64,1c.22,1,.43,2.09.65,3.14a1.89,1.89,0,0,0,3.64-1Z"/><path class="cls-2" d="M788.86,394.27c-.32,2.71-.63,5.43-1,8.14-.28,2.4,3.5,2.38,3.77,0l1-8.14C792.91,391.87,789.13,391.89,788.86,394.27Z"/><path class="cls-2" d="M501.85,532.28a1.92,1.92,0,0,0-2.58-.67,3.47,3.47,0,0,1-2.37.26,1.89,1.89,0,1,0-1,3.64,7.57,7.57,0,0,0,5.28-.65A1.9,1.9,0,0,0,501.85,532.28Z"/><path class="cls-2" d="M376.87,523.75l-3.14-1.26a1.89,1.89,0,0,0-2.32,1.32,2,2,0,0,0,1.32,2.32l3.14,1.25a1.89,1.89,0,0,0,2.32-1.31A1.93,1.93,0,0,0,376.87,523.75Z"/><path class="cls-2" d="M307.38,523.1a1.71,1.71,0,0,0-1.29-1.31,21.21,21.21,0,0,1-6.72-2.19,1.84,1.84,0,0,0-1-.22c-1.94-.91-3.59,2.12-1.65,3.39a24.36,24.36,0,0,0,8.82,3.54A2,2,0,0,0,307.38,523.1Z"/><path class="cls-2" d="M329,526.86a24.91,24.91,0,0,1-8.26-1.75c-2.26-.88-3.24,2.76-1,3.64a27.94,27.94,0,0,0,9.26,1.88C331.46,530.72,331.46,527,329,526.86Z"/><path class="cls-2" d="M316,513.91a16.86,16.86,0,0,1-6.58-2.33c-2.08-1.26-4,2-1.9,3.25a21.17,21.17,0,0,0,8.48,2.85C318.45,518,318.43,514.19,316,513.91Z"/><path class="cls-2" d="M481.3,601h-6.91a1.89,1.89,0,0,0,0,3.77h6.91A1.89,1.89,0,0,0,481.3,601Z"/><path class="cls-2" d="M217.28,361c-2.34-.66-3.34,3-1,3.64a1.32,1.32,0,0,1,.8.55,1.43,1.43,0,0,1,.23.48l0,.2c0,.05,0,.47,0,.21a1.94,1.94,0,0,0,1.32,2.32,1.9,1.9,0,0,0,2.32-1.31A5.32,5.32,0,0,0,217.28,361Z"/><path class="cls-2" d="M60.06,369.41,58.8,366.9a1.88,1.88,0,1,0-3.25,1.9c.41.84.83,1.68,1.25,2.51a1.9,1.9,0,0,0,2.58.68A1.93,1.93,0,0,0,60.06,369.41Z"/><path class="cls-2" d="M29.33,241.7a2.15,2.15,0,0,0-3.61-.86,2.29,2.29,0,0,0-.71,1.65,2.15,2.15,0,0,0,1.54,2,1.85,1.85,0,0,0,2-.72A1.84,1.84,0,0,0,29.33,241.7Z"/><path class="cls-5" d="M555.56,144a7.65,7.65,0,0,0-5.49-5.43,2.17,2.17,0,0,0-1.55.3c-4,.15,1.59,6.32,3.15,6.84C554.86,146.81,555.86,145.69,555.56,144Z"/><path class="cls-4" d="M542.39,689.67c-.56.12-1.11.23-1.67.33-6-4.53-11.94-9.1-17.15-14.66-7.32-7.8-14.19-16.58-24.34-20.79-10.37-4.29-22-3.33-32.5,0S447.29,664,438,669.89c-7.9,5-17,9.89-26.66,8.68-9.52-1.21-16.54-8.15-23.4-14.21-8.53-7.55-18.19-12.85-29.6-14.43a51.47,51.47,0,0,0-42.73,14.14l-1.19-.6A52.92,52.92,0,0,1,360.56,649c10.51,1.86,19.56,6.86,27.51,13.83,8.69,7.61,17.47,16.28,30.05,14.37,11.51-1.75,20.87-9.85,30.52-15.7,9-5.46,19.18-9.57,29.72-10.77,10.32-1.17,20.72.92,29.2,7.08,8.73,6.33,14.89,15.39,22.88,22.54C534.07,683.61,538.21,686.61,542.39,689.67Z"/><path class="cls-2" d="M528.79,130.26a6,6,0,0,0-6.84-2.69,1.3,1.3,0,0,0-.9,1.44,1.12,1.12,0,0,0,.26,1.33A6.84,6.84,0,0,0,528,132.1,1.26,1.26,0,0,0,528.79,130.26Z"/><path class="cls-7" d="M221.91,174.12a7.77,7.77,0,0,0-8.18,3.55,1.08,1.08,0,0,0,0,1.18,6.2,6.2,0,0,0-.14.65,1.25,1.25,0,0,0,1.26,1.26,10.5,10.5,0,0,0,7.83-4.78A1.28,1.28,0,0,0,221.91,174.12Z"/><path class="cls-7" d="M85.45,193.59a1.28,1.28,0,0,0-1.89-1.09,8.62,8.62,0,0,0-4.8,8.66,1.36,1.36,0,0,0,1.51,1.18,1.31,1.31,0,0,0,1.62-.12A10.43,10.43,0,0,0,85.45,193.59Z"/><path class="cls-2" d="M202.9,517.27a19.82,19.82,0,0,0-7-7.63,1.27,1.27,0,0,0-1.84,1.42,12.76,12.76,0,0,0,.77,1.95,1.19,1.19,0,0,0,.11,1,10.69,10.69,0,0,0,6.53,5.14A1.27,1.27,0,0,0,202.9,517.27Z"/><path class="cls-2" d="M200.06,456.35a8.72,8.72,0,0,0-4.15-4.62c-.76-.38-2,.07-1.89,1.09,0,.18.07.36.1.54a1.28,1.28,0,0,0,0,1.66,14.09,14.09,0,0,0,1.77,1.77,6.1,6.1,0,0,0,1.82,1.3c.25.16.51.32.78.46a1.3,1.3,0,0,0,1.85-.8A1.22,1.22,0,0,0,200.06,456.35Z"/><path class="cls-2" d="M194.3,441c-.84-1.26-3.28-3.46-4.5-1.31a2.06,2.06,0,0,0-.24,1.06,1.28,1.28,0,0,0-.24,1.46c.72,1.52,2.42,3.75,4.33,3.57C196.17,445.53,195.19,442.32,194.3,441Z"/><path class="cls-7" d="M270.44,594.65a7.7,7.7,0,0,0-1.6-1.9,5,5,0,0,0-3.62-1.92,1.26,1.26,0,0,0-1.2,1.6,1.33,1.33,0,0,0,.32.83,8.06,8.06,0,0,0,1.25,1.23,8.38,8.38,0,0,0,3.43,2A1.27,1.27,0,0,0,270.44,594.65Z"/><path class="cls-7" d="M237.55,443.38a6.36,6.36,0,0,0-3.87-3.85c-1-.37-1.68.7-1.55,1.54a4.54,4.54,0,0,0,1.65,2.78,2.63,2.63,0,0,0,2.89,1.07A1.27,1.27,0,0,0,237.55,443.38Z"/><path class="cls-7" d="M177,477.11l-.13-.15a5.29,5.29,0,0,0-1.46-2.73,1.27,1.27,0,0,0-2.1,1.22,7.22,7.22,0,0,0,.35,1,1.18,1.18,0,0,0,.12.9c.29.51.58,1,.86,1.52a1.2,1.2,0,0,0,1.87.29A1.3,1.3,0,0,0,177,477.11Z"/><path class="cls-2" d="M480.61,501.8a8,8,0,0,0-9-.07,1.49,1.49,0,0,0-.46.54,1.22,1.22,0,0,0,.35,2.21,18.65,18.65,0,0,0,3.63.38,9.28,9.28,0,0,0,2.34-.15,18.56,18.56,0,0,0,2.81-.61A1.28,1.28,0,0,0,480.61,501.8Z"/><path class="cls-7" d="M599.64,519.9a12.94,12.94,0,0,0-7.4,2.6,1.27,1.27,0,0,0,.64,2.34,11.78,11.78,0,0,0,6.53-1.38,1.08,1.08,0,0,0,.61-.89c.17-.17.35-.34.51-.52A1.27,1.27,0,0,0,599.64,519.9Z"/><path class="cls-7" d="M578.09,587.57c-.07-4-5.89-1.85-8.56-.47l-.25,0a1,1,0,0,0-1.19,1.16,1.3,1.3,0,0,0,.81,1.68,9.56,9.56,0,0,0,8.19-.81,1.17,1.17,0,0,0,.47-.53A1.22,1.22,0,0,0,578.09,587.57Z"/><path class="cls-7" d="M726.83,418.9a1.28,1.28,0,0,0-2.3.3,32.7,32.7,0,0,0-.79,5.45c0,.22,0,.43,0,.64a31.08,31.08,0,0,0,0,3.48c.08,1.16,1.73,1.82,2.35.64.13-.26.25-.52.36-.79A7.93,7.93,0,0,0,726.83,418.9Z"/><path class="cls-7" d="M733.34,432.24c-1.48-1-2.9.57-3.54,1.79a6.28,6.28,0,0,0-.57,1.66,3.35,3.35,0,0,0,.08,3.88A1.29,1.29,0,0,0,731,440a6.09,6.09,0,0,0,2.73-3.79C734.14,435,734.64,433.15,733.34,432.24Z"/><path class="cls-7" d="M625.37,277.62a1.26,1.26,0,0,0-1.89,1.08,11.7,11.7,0,0,0,.3,1.69.43.43,0,0,0,0,.11,11.63,11.63,0,0,0,2.9,5.25,1.11,1.11,0,0,0,1.38.24,1.41,1.41,0,0,0,.91-1.17A7.58,7.58,0,0,0,625.37,277.62Z"/><path class="cls-7" d="M611.52,149.34c-.13-.25-.3-.47-.45-.71a11.12,11.12,0,0,0-2.67-4c-1-.95-3.32-2.73-4.33-.74-.76,1.49.78,3.41,1.71,4.46.09.1.19.18.28.27a4.89,4.89,0,0,0,.4.39,10.48,10.48,0,0,0,3.65,2.17C611.18,151.56,612,150.24,611.52,149.34Z"/><path class="cls-7" d="M546.44,216.84c-.1-.15-.21-.29-.32-.43A1.18,1.18,0,0,0,546,216a5.53,5.53,0,0,0-3.32-2.55c-1.27-.32-2.95-.21-3.38,1.29s.69,2.66,1.8,3.31a6.52,6.52,0,0,0,4.62.69A1.27,1.27,0,0,0,546.44,216.84Z"/><path class="cls-7" d="M352.07,404.23a5.62,5.62,0,0,0-4.58-4.5,1.67,1.67,0,0,0-1,.2l-.4-.11a2.75,2.75,0,0,0-1.31,3.41,9.58,9.58,0,0,0,6.08,3.07c.82.11,1.25-.67,1.2-1.38A1.47,1.47,0,0,0,352.07,404.23Z"/><path class="cls-7" d="M277.84,103.23a1.17,1.17,0,0,0-.86-.89,14.63,14.63,0,0,0-1.7-.27,8.43,8.43,0,0,0-3.54-.12,7,7,0,0,0-2.35.85c-.36.13-.72.28-1.08.44-1,.46-.7,1.66.1,2.11.58,1.44,2.59,1.65,3.93,1.53a7.25,7.25,0,0,0,.93-.17,8.92,8.92,0,0,0,4.26-1.57A1.31,1.31,0,0,0,277.84,103.23Z"/><path class="cls-2" d="M423.46,471.34c0-1.33-1.08-2-2.37-2.47a12,12,0,0,0-3.27-.77,3.43,3.43,0,0,0-2.79.37,2.14,2.14,0,0,0-.56,2.78,3.13,3.13,0,0,0,1.77,1.41,7,7,0,0,0,3.41,1.2c1.11.07,2.85,0,3.55-1A1.64,1.64,0,0,0,423.46,471.34Z"/><path class="cls-7" d="M789.49,336.7a1.28,1.28,0,0,0-1.17-.31,1,1,0,0,0-.86.7,8.31,8.31,0,0,0,.25,8,1.27,1.27,0,0,0,2.17,0,7.05,7.05,0,0,0,1.2-4.11A5.25,5.25,0,0,0,789.49,336.7Z"/><path class="cls-7" d="M772.54,469.62a1.34,1.34,0,0,0-1.17,0c-.1,0-.19.11-.29.16a1.07,1.07,0,0,0-1.38.24,7.1,7.1,0,0,0-1.21,1.85,8,8,0,0,0-.73,1.09c-.68,1.24-1.53,3.46.08,4.36s3-.59,3.9-1.68a8.64,8.64,0,0,0,1.83-4.8A1.29,1.29,0,0,0,772.54,469.62Z"/><path class="cls-7" d="M699.89,207.05a1.26,1.26,0,0,0-1.84.75,6.76,6.76,0,0,0-.09,1.34,1.29,1.29,0,0,0,0,.76,7.56,7.56,0,0,0,.52,1.52,6,6,0,0,0,1.52,2.13l.27.25a8.76,8.76,0,0,0,1,.8,1.28,1.28,0,0,0,1.9-1.09A6.66,6.66,0,0,0,699.89,207.05Z"/><path class="cls-4" d="M626.67,408a1,1,0,0,0,0,2A1,1,0,0,0,626.67,408Z"/><path class="cls-4" d="M629.05,400.47a1,1,0,0,0,0,2A1,1,0,0,0,629.05,400.47Z"/><path class="cls-4" d="M635.17,408.1a1,1,0,0,0,0,2A1,1,0,0,0,635.17,408.1Z"/><path class="cls-4" d="M620.8,366.35v.12a1,1,0,0,0,2,0v-.12A1,1,0,0,0,620.8,366.35Z"/><path class="cls-4" d="M604.17,329.35a.5.5,0,0,0,0,1A.5.5,0,0,0,604.17,329.35Z"/><path class="cls-4" d="M621.42,303.47a1,1,0,0,0,0,2A1,1,0,0,0,621.42,303.47Z"/><path class="cls-4" d="M630.17,304.1v.12a1,1,0,0,0,2,0v-.12A1,1,0,0,0,630.17,304.1Z"/><path class="cls-4" d="M687.09,225H687a1,1,0,0,0,0,2h.13A1,1,0,0,0,687.09,225Z"/><path class="cls-4" d="M690.88,232.77l-.12.12a1,1,0,0,0,1.41,1.41l.13-.12A1,1,0,0,0,690.88,232.77Z"/><path class="cls-4" d="M696.71,230.35h-.12a1,1,0,0,0,0,2h.12A1,1,0,0,0,696.71,230.35Z"/><path class="cls-4" d="M630.34,179.35a.5.5,0,0,0,0,1A.5.5,0,0,0,630.34,179.35Z"/><path class="cls-4" d="M637.84,160.85a.5.5,0,0,0,0,1A.5.5,0,0,0,637.84,160.85Z"/><path class="cls-4" d="M555.51,159.68a1,1,0,0,0,0,2A1,1,0,0,0,555.51,159.68Z"/><path class="cls-4" d="M531.76,145.09a.43.43,0,0,0,0-.46.9.9,0,0,0-.93-.78,1,1,0,0,0,0,2,.56.56,0,0,0,.23,0A.89.89,0,0,0,531.76,145.09Z"/><path class="cls-4" d="M541.92,248.35v.12a1,1,0,0,0,2,0v-.12A1,1,0,0,0,541.92,248.35Z"/><path class="cls-4" d="M545.67,236.85a1.19,1.19,0,0,0-1.1.62c-.61.94.61,1.82,1.4,1.33A1,1,0,0,0,545.67,236.85Z"/><path class="cls-4" d="M542,281.85a1,1,0,0,0-.84,1.49.49.49,0,0,0,.64.47,1.18,1.18,0,0,0,.2,0A1,1,0,0,0,542,281.85Z"/><path class="cls-4" d="M353.09,127l-.12.12a1,1,0,0,0,1.41,1.41l.12-.12A1,1,0,0,0,353.09,127Z"/><path class="cls-4" d="M358.55,114.35a1,1,0,0,0,0,2A1,1,0,0,0,358.55,114.35Z"/><path class="cls-4" d="M334.17,122.1a1,1,0,0,0,0,2A1,1,0,0,0,334.17,122.1Z"/><path class="cls-4" d="M260.67,116.85v.5a.5.5,0,0,0,1,0v-.5A.5.5,0,0,0,260.67,116.85Z"/><path class="cls-4" d="M191.13,136.14c-.08.08-.16.17-.25.25a1,1,0,0,0-.26.5.51.51,0,0,0,.22,1H191a.92.92,0,0,0,1.3,0l.25-.25A1,1,0,0,0,191.13,136.14Z"/><path class="cls-4" d="M191.59,143.6h-.25a.91.91,0,0,0-.69.29.51.51,0,0,0-.27.63,1,1,0,0,0,1,1.08h.25A1,1,0,0,0,191.59,143.6Z"/><path class="cls-4" d="M199.84,141.6h-.25a1,1,0,0,0,0,2h.25A1,1,0,0,0,199.84,141.6Z"/><path class="cls-4" d="M175.84,121.35v.5a.5.5,0,0,0,1,0v-.5A.5.5,0,0,0,175.84,121.35Z"/><path class="cls-4" d="M143.49,191l-.5.5c-.46.46.25,1.17.7.71l.5-.5C144.65,191.25,143.94,190.54,143.49,191Z"/><path class="cls-4" d="M106.84,190.35a.5.5,0,0,0,0,1A.5.5,0,0,0,106.84,190.35Z"/><path class="cls-4" d="M68.84,176.85v.5a.5.5,0,0,0,1,0v-.5A.5.5,0,0,0,68.84,176.85Z"/><path class="cls-4" d="M192.84,220.85h-.5l-.13,0-.12,0a1,1,0,0,0,0,2,1,1,0,0,0,1-1A.51.51,0,0,0,192.84,220.85Z"/><path class="cls-4" d="M196.81,224.94a.5.5,0,0,0-.27-.55,1,1,0,0,0-1.7.71v.25a1,1,0,0,0,2,0v-.25C196.84,225,196.81,225,196.81,224.94Z"/><path class="cls-4" d="M203,213.85h-.11a.49.49,0,0,0-.45.69,1,1,0,0,0,1.66,1l.25-.25A1,1,0,0,0,203,213.85Z"/><path class="cls-4" d="M304.67,191.35v.5a.5.5,0,0,0,1,0v-.5A.5.5,0,0,0,304.67,191.35Z"/><path class="cls-4" d="M326.42,179.6a1,1,0,0,0,0,2A1,1,0,0,0,326.42,179.6Z"/><path class="cls-4" d="M303.8,168.1a1,1,0,0,0,0,2A1,1,0,0,0,303.8,168.1Z"/><path class="cls-4" d="M341.42,151.22a1,1,0,0,0,0,2A1,1,0,0,0,341.42,151.22Z"/><path class="cls-4" d="M161.09,310.6a1,1,0,0,0,0,2A1,1,0,0,0,161.09,310.6Z"/><path class="cls-4" d="M166.09,326.6v.25a1,1,0,0,0,1,1,.65.65,0,0,0,.21,0,.44.44,0,0,0,.42-.27.89.89,0,0,0,.33-.73v-.25A1,1,0,0,0,166.09,326.6Z"/><path class="cls-4" d="M170.77,307.62a.92.92,0,0,0-.93-.77h-.25a1,1,0,0,0,0,2h.25a.92.92,0,0,0,.93-.78A.59.59,0,0,0,170.77,307.62Z"/><path class="cls-4" d="M149.34,277.85h-.5a.5.5,0,0,0,0,1h.5A.5.5,0,0,0,149.34,277.85Z"/><path class="cls-4" d="M138.34,337.6a.92.92,0,0,0-.73.32.45.45,0,0,0-.27.43v.5a.45.45,0,0,0,.27.42.89.89,0,0,0,.73.33A1,1,0,0,0,138.34,337.6Z"/><path class="cls-4" d="M52.09,319.1a1,1,0,0,0,0,2A1,1,0,0,0,52.09,319.1Z"/><path class="cls-4" d="M62.59,280.35h-.25a1,1,0,0,0,0,2h.25A1,1,0,0,0,62.59,280.35Z"/><path class="cls-4" d="M51.09,255.85a1,1,0,0,0,0,2A1,1,0,0,0,51.09,255.85Z"/><path class="cls-4" d="M19.84,281.35h-.5a.5.5,0,0,0,0,1h.5A.5.5,0,0,0,19.84,281.35Z"/><path class="cls-4" d="M239.67,409.16a.5.5,0,0,0-1,0,1,1,0,0,0,.42,1.92h.25A1,1,0,0,0,239.67,409.16Z"/><path class="cls-4" d="M223.84,396.6a.92.92,0,0,0-.94.84.5.5,0,0,0,.27.91,1.08,1.08,0,0,0,.67.25A1,1,0,0,0,223.84,396.6Z"/><path class="cls-4" d="M238.59,387.1v.25a1,1,0,0,0,2,0v-.25A1,1,0,0,0,238.59,387.1Z"/><path class="cls-4" d="M223.56,380.22a1,1,0,0,0-2,.13v.25a1,1,0,0,0,1.95.25A.54.54,0,0,0,223.56,380.22Z"/><path class="cls-4" d="M248.19,402.83l-.15-.15a.94.94,0,0,0-.95-1.08,1,1,0,0,0,0,2,.92.92,0,0,0,.38-.08C247.94,404,248.65,403.28,248.19,402.83Z"/><path class="cls-4" d="M166.15,402.16a1,1,0,0,0-.31-.06,1,1,0,0,0,0,2,.88.88,0,0,0,.8-.46.46.46,0,0,0,.37-.46v-.67A.51.51,0,0,0,166.15,402.16Z"/><path class="cls-4" d="M178.59,363.6a1,1,0,0,0-2,0v.25a.9.9,0,0,0,.13.48.49.49,0,0,0,.45.68h.67a.47.47,0,0,0,.48-.5.89.89,0,0,0,.27-.66Z"/><path class="cls-4" d="M334.09,473.85v.25a1,1,0,0,0,2,0v-.25A1,1,0,0,0,334.09,473.85Z"/><path class="cls-4" d="M345.67,486.05v-.2a.5.5,0,0,0-1,0v.08a1,1,0,1,0,1,.12Z"/><path class="cls-4" d="M356.13,477.89c-.08.08-.16.17-.25.25a1,1,0,0,0,1.42,1.41l.25-.25A1,1,0,0,0,356.13,477.89Z"/><path class="cls-4" d="M366.09,480.6a1,1,0,0,0-1,1.07.52.52,0,0,0,.26.64.94.94,0,0,0,.7.29A1,1,0,0,0,366.09,480.6Z"/><path class="cls-4" d="M404.84,467.85a1,1,0,0,0-.68,1.72.44.44,0,0,0,.43.28h.25a.72.72,0,0,0,.21-.05A1,1,0,0,0,404.84,467.85Z"/><path class="cls-4" d="M409.09,486.6v.25a1,1,0,0,0,2,0v-.25A1,1,0,0,0,409.09,486.6Z"/><path class="cls-4" d="M553.17,496.85a1,1,0,0,0,0,2A1,1,0,0,0,553.17,496.85Z"/><path class="cls-4" d="M577.17,468.18a1,1,0,0,0,0,2A1,1,0,0,0,577.17,468.18Z"/><path class="cls-4" d="M435.8,563.81l-.67.66a1,1,0,0,0,1.42,1.42l.66-.67A1,1,0,0,0,435.8,563.81Z"/><path class="cls-4" d="M479.17,563.51a1,1,0,0,0,0,2A1,1,0,0,0,479.17,563.51Z"/><path class="cls-4" d="M699.84,555.85a1,1,0,0,0,0,2A1,1,0,0,0,699.84,555.85Z"/><path class="cls-4" d="M712.84,534.85a1,1,0,0,0,0,2A1,1,0,0,0,712.84,534.85Z"/><path class="cls-4" d="M734.84,520.85a1,1,0,0,0,0,2A1,1,0,0,0,734.84,520.85Z"/><path class="cls-7" d="M658.62,379.22c-.36-.92-1.78-1.37-2.31-.3a12.28,12.28,0,0,0-1.22,4.05,7.15,7.15,0,0,0,.17,3.61c0,.18.06.35.1.53a1.2,1.2,0,0,0,1,.89,1.22,1.22,0,0,0,1.35-.55A9,9,0,0,0,658.62,379.22Z"/><path class="cls-4" d="M345.22,625.59a9.88,9.88,0,0,0-5-2.49c-.9-.15-2.74-.38-3.35.54a8.66,8.66,0,0,0-1.31.33.5.5,0,0,0-.26.83,8.35,8.35,0,0,0,6.55,2.45,8.58,8.58,0,0,0,3.31-.53.48.48,0,0,0,.18-.69A.42.42,0,0,0,345.22,625.59Z"/><path class="cls-4" d="M397.09,587.84a1,1,0,0,0-.24-.54s0,0,0-.06c-.44-1.17-2.08-2.63-3.39-1.71a1.28,1.28,0,0,0-.56.92.52.52,0,0,0-.31.5.51.51,0,0,0,0,.83,3.53,3.53,0,0,0,1.21.5,1.63,1.63,0,0,0,.4.24C395,588.87,397.31,589.44,397.09,587.84Z"/><path class="cls-4" d="M582.43,631.1a9.07,9.07,0,0,0-4.54.4,12.7,12.7,0,0,0-3.43,1c-1.06.46-3.62,1.5-2.93,3.12.62,1.47,3.18,1.17,4.35,1,2.27-.27,5.49-1.21,7-3C583.68,632.63,583.66,631.5,582.43,631.1Z"/><path class="cls-4" d="M625.11,611.44c-.35-1-1.46-.75-2.25-.45a.53.53,0,0,0-.44-.1c-1.49.42-6,2.27-5.07,4.54a1.28,1.28,0,0,0,.43.55.48.48,0,0,0,.71.33l.08,0c1.63.09,4.16-1.72,4.93-2.32S625.47,612.5,625.11,611.44Z"/><path class="cls-4" d="M297.14,607.35v.5a.5.5,0,0,0,1,0v-.5A.5.5,0,0,0,297.14,607.35Z"/><path class="cls-4" d="M306.14,601.35h-.5a1,1,0,0,0,0,2h.5A1,1,0,0,0,306.14,601.35Z"/><path class="cls-4" d="M305.64,614.35h-.5a1,1,0,0,0,0,2h.5A1,1,0,0,0,305.64,614.35Z"/><path class="cls-4" d="M390.64,624.35a1,1,0,0,0,0,2A1,1,0,0,0,390.64,624.35Z"/><path class="cls-4" d="M416.14,615.85h-1a1,1,0,0,0,0,2h1A1,1,0,0,0,416.14,615.85Z"/><path class="cls-4" d="M531.14,605.35a1,1,0,0,0,0,2A1,1,0,0,0,531.14,605.35Z"/><path class="cls-4" d="M534.14,595.85v.5a1,1,0,0,0,2,0v-.5A1,1,0,0,0,534.14,595.85Z"/><path class="cls-4" d="M636.14,581.85h-.5a.5.5,0,0,0,0,1h.5A.5.5,0,0,0,636.14,581.85Z"/><path class="cls-4" d="M651.14,600.35a.5.5,0,0,0,0,1A.5.5,0,0,0,651.14,600.35Z"/><path class="cls-4" d="M667.79,578c-.17.17-.33.34-.5.5a.5.5,0,0,0,.71.71l.5-.5A.5.5,0,0,0,667.79,578Z"/><path class="cls-4" d="M238.79,561c-.17.17-.33.34-.5.5a.5.5,0,0,0,.71.71l.5-.5A.5.5,0,0,0,238.79,561Z"/><path class="cls-4" d="M223.64,532.85v.5a.5.5,0,0,0,1,0v-.5A.5.5,0,0,0,223.64,532.85Z"/><path class="cls-4" d="M188.64,530.35a.5.5,0,0,0,0,1A.5.5,0,0,0,188.64,530.35Z"/><path class="cls-4" d="M460.64,430.35a.5.5,0,0,0,0,1A.5.5,0,0,0,460.64,430.35Z"/><path class="cls-4" d="M460.14,402.85v1a.5.5,0,0,0,1,0v-1A.5.5,0,0,0,460.14,402.85Z"/><path class="cls-4" d="M501.64,424.35a.5.5,0,0,0,0,1A.5.5,0,0,0,501.64,424.35Z"/><path class="cls-4" d="M480.29,438.49l-1,1a.5.5,0,0,0,.71.71l1-1A.5.5,0,0,0,480.29,438.49Z"/><path class="cls-8" d="M481.46,21.63A17.26,17.26,0,0,0,480,17.94c-1.16-2.75-1.31-1.32-.33-4.54.82-2.72,1.78-4.85.51-7.61C477.7.31,470-1,464.5.67a16.62,16.62,0,0,0-11.15,11.51c-10.9-1-23.43,2.26-32.13,5-7.78,2.47-17.55,5.58-22.6,12.06s-4.08,15.16-1,22.24a1.44,1.44,0,0,0,2.1.54l23,22.61c6.8,6.67,19,18.62,27.22,23.69,5.46,3.36,12.93-12.68,17.78-21.42,2.73-4.91,6.14-9.73,7.46-15.27a52.12,52.12,0,0,0-.2-24.49,4.66,4.66,0,0,1,2-5A10.22,10.22,0,0,0,481.46,21.63Z"/><path class="cls-9" d="M468.67,311.55c-1.66-8-6.27-12.63-14.17-16C434.78,287,413.21,282,391.49,280a1.43,1.43,0,0,0-1.39-.52C351,285.84,311.25,292.69,275,308.36c-14.32,6.2-38.91,14.39-42.77,29.8-3.07,12.27,8.12,33,18.74,39.22a23.89,23.89,0,0,0,5.52,2.31c12.8,3.75,29.74,4.14,43,2.82,20.84-2.09,41.63-5,62.23-8.58a617.53,617.53,0,0,0,62.89-14.14c10.31-2.93,20.53-6.15,30.56-9.79,6.45-2.33,9.82-5.07,11.81-11.25A53.73,53.73,0,0,0,468.67,311.55Z"/><path class="cls-9" d="M507.88,365.66c-2.1-9.55-4.4-19-6.41-28.29q-1.53-7.08-3.08-14.17c-.75-3.45-8.27-8.21-7.44-11.56a1.26,1.26,0,0,0-.24-1.12l0-.13a1.19,1.19,0,0,0-1.95-.61c-13.2-3.22-27.49,1.61-39.61,6.76a122.27,122.27,0,0,0-36.5,24.21,1,1,0,0,0-1.15,1.22,1.15,1.15,0,0,0,.15,1.12c2.67,20.15,10,39.1,17,58q6,16.2,12.81,32.09c4.09,9.55,7.61,21.2,14.91,28.84,17.13,17.93,45.6,8.14,53-14.2C518.25,421,513.89,392.94,507.88,365.66Z"/><path class="cls-1" d="M509.5,373.28c-3,5.29-6.78,10.09-9.6,15.5a24.14,24.14,0,0,0-3,11c0,4.34,1.21,8.74,1.61,13.08.5,5.34.49,10.79,1.35,16.09.71,4.46,2.68,8.53,4.49,12.63a38.34,38.34,0,0,1,3.18,10.7,35.28,35.28,0,0,0,1.8-4.38C517.43,423.48,514.58,398.14,509.5,373.28Z"/><path class="cls-9" d="M509.61,185.34c-.35-1.58-2.78-.91-2.43.67.59,2.62,1,5.28,1.34,8a1.07,1.07,0,0,0-.28.19q-33.67,32.24-69.11,62.55-17.22,14.7-34.84,28.92c-11.5,9.31-22.93,18.68-32.45,30.07a1.31,1.31,0,0,0-.6.79c-.24.48-.74,2.23-.46,2.61,1.52,7.63,22.73,21.49,36.8,23.89,9,1.52,18.08,1.82,27.16,2a108.94,108.94,0,0,0,25-2.21,5.46,5.46,0,0,0,5-3.74c3.14-6.61,6-13.89,11.31-19.16a3.78,3.78,0,0,1,6.36-.29l5.21,7.36c1.81,2.56,3.9,7.57,6.94,9,2.78,1.3,7.27-.74,10-1.29a1.29,1.29,0,0,0,.92-1.22q3.33-37.86,4.88-75.85.75-18.69,1.06-37.37C511.52,208.58,512.17,196.78,509.61,185.34Z"/><path class="cls-10" d="M258.54,312.27a118.79,118.79,0,0,0-6.06-13.3,3.25,3.25,0,0,0-2.26-.45q-6.72,3.75-13.73,7a1.07,1.07,0,0,1-1.16-.18c-3.68-3.34-7.34-5.57-12.68-5.56a95.2,95.2,0,0,0-14.77,1.43c-6.74,1.05-15.09,3.4-17.26,10.68-1,3.25.47,6.48,3.65,7.23a11.75,11.75,0,0,0,1.7,4.58,6.07,6.07,0,0,0,1,4.71c-.06.15-.13.3-.18.46-.7,2.37,1.35,7.82,3.72,8.7,7,2.58,33.2-7.17,39.19-9.67,4.73-2,10.64-3.69,13.87-7.95,1-1.36,5-2.34,5.7-4C259.83,314.76,259,313.34,258.54,312.27ZM203,306.82a2,2,0,0,1,1,0,12.88,12.88,0,0,0,4.38.45c2.29-.15,4.52-.77,6.79-1.07,2-.26,6.79-.21,5.93,3-.49,1.81-3.06,2.92-4.66,3.55-2.12.84-2.15-2.13-4.3-2.59-3-.64-9.6.24-12.68,1.15a4.38,4.38,0,0,1,.7-2C200.74,308.35,201.76,307.07,203,306.82Z"/><path class="cls-10" d="M454.28,71.17c1.63-2.29-1.85-5.28-4.17-3.21a2.14,2.14,0,0,0-1.24,1.21c-6.68,6.7-14.4,16.56-24.35,18.12a2.09,2.09,0,0,0-2,2.39,2.4,2.4,0,0,0-.64,2.15,345.55,345.55,0,0,1,5.3,44c-1.1.22,6.46,9.12,12.42,6.95,8-2.92,21.13-5.71,18.81-15.55C452.09,100.43,452.64,73.49,454.28,71.17Z"/><path class="cls-11" d="M421.9,91.83c1.4,7.52,3,20.88,3.84,28.45,4.39-.79,9.87-7.11,12.18-11.34,7.46-13.65-1.77-22.17-3.67-30.77-6.43,6.63-.33,7.65-9.73,9.12a2.09,2.09,0,0,0-2,2.39A2.4,2.4,0,0,0,421.9,91.83Z"/><path class="cls-1" d="M234.8,342.71c4.23-5.68,9.6-8.69,16.48-10.07s14.46-1.2,21-4.21c8.5-3.88,12-12.85,17-20.09a57.54,57.54,0,0,1,7.11-8.14c-7.24,2.43-14.38,5.13-21.39,8.16-14.32,6.2-38.91,14.39-42.77,29.8a22.32,22.32,0,0,0-.16,8.74A44,44,0,0,1,234.8,342.71Z"/><path class="cls-10" d="M556,427.18c-1.55-2.08-4.81-2.73-6.68-4.61-2.3-2.32-3.12-5.77-5.67-7.83-3.42-2.76-7.65-2.28-11.42-.8q-1.82-9.93-3.62-19.84c-.2-1.14-1.55-1-2.08-.2-5.6-.83-12.19-.57-17,2.53-4.5,2.89-3.1,8.06-2.63,12.68,1.41,13.82,5.41,27.17,10,40.21,2.54,7.21,6.55,5.91,12.76,4.32,4.08-1,8.37-1.74,12-3.94a12,12,0,0,0,2.94.12c3.66-.32,5.88-3.26,7.55-6.52a1.19,1.19,0,0,0,.42-.44c.75-1.41,4.45-9,3.07-11.75A2.65,2.65,0,0,0,556,427.18Zm-11.17,10.14a7.49,7.49,0,0,0-1.12-3.44,12.55,12.55,0,0,0-4.15-3.59,4.56,4.56,0,0,1,2.24-3.89,10.08,10.08,0,0,1,3.24,2.4,13.52,13.52,0,0,0,2.4,2.32,7.88,7.88,0,0,0,3.45,1.23c-.66.93-1.22,1.93-1.67,2.51C547.81,436.75,546.27,437.42,544.86,437.32Z"/><path class="cls-12" d="M374.15,189.32c-9.6-4-18.63-12.74-28.94-14.16-10.94,21.93-20.49,44.51-31.78,66.26a110.63,110.63,0,0,1-7.83,13.72c-4.71,6.55-22.16,17.64-33.7,23.44-10.16,5.12-29.18,18.53-35.66,23.16a3.64,3.64,0,0,0-1.31,4.16c2.38,6.8,4.35,12.73,9.28,18.56,4.4,5.2,12.72.47,17.59-1.57a529.53,529.53,0,0,0,51.95-25.81c7.58-4.22,14.29-9.71,21-15.28,18.74-15.58,43.74-52.11,51.84-70.83C389.93,203.24,381.57,192.43,374.15,189.32Z"/><path class="cls-9" d="M539,409.25a3.11,3.11,0,0,0,3.19-3.28c-2.32-37.58-14-73-14.25-110.85-.22-39.64,8.34-77.41-.9-120-.07-.33-29.51-10.25-37.38,1.9-4,6.16-12.38,17.12-12.64,24.16-.41,10.85,2.34,33.26,1.93,44.1-1.49,40.28-.42,56.68,5.88,96.59,3.24,20.5,11.33,47.59,18,69.14a3.08,3.08,0,0,0,4.13,2C516.11,409.19,528.77,409,539,409.25Z"/><path class="cls-12" d="M528.75,184c-2.79-15.82-7.93-30.78-21.06-40.89-14.07-10.84-37.69-17.77-54.87-21.44-16.59-3.54-36.1-8-53-4.94-16.78,3-29.19,16.65-38.13,30.31a374.83,374.83,0,0,0-30.34,57.4c-.57,1.33,1.14,2.49,1.95,1.6a1.2,1.2,0,0,0,.71.6c7.68,2.57,18.89.18,26.43-1.66q5.61-1.36,11.16-2.92c2.55-.7,6.2-3.82,5,3.88-1,6.39.62,12.77,2.23,19.46q2.72,11.28,5.86,22.45a53.3,53.3,0,0,1-2.7,36.28c-2.74,6.11-5.31,12.27-7.51,18.54-1.54,4.4-5.83,13.14-3.09,17.64,2.39,3.92,9.55,4.41,13.56,4.44,26,.16,50.4-12.87,68.4-31,19.86-20,26.66-45.48,40.47-69.19C497,219,528.75,184,528.75,184Z"/><path class="cls-9" d="M348.36,183.51a129.45,129.45,0,0,0,24.38-3.42c16.17-3.74,31.72-9.79,46.92-16.38,18.84-8.17,42.73-18.12,51.38-37.37-6.39-1.9-12.64-3.44-18.22-4.63-16.59-3.54-36.1-8-53-4.94-16.78,3-29.19,16.65-38.13,30.31a349.36,349.36,0,0,0-20.72,36.52C343.41,183.61,345.88,183.61,348.36,183.51Z"/><path class="cls-10" d="M463.29,49.34c-.45-8.31-2.48-18.25-10.43-22.63-7.34-4-16.51-1.85-24.23-.28C419.54,28.29,411.12,30,403.17,35c-9.11,19.6-8.22,48.22-.91,64.54,4.95,11,15.05,12.47,26.55,9.26,10.29-2.87,10.43-12,15.1-19.81,4.55-7.65,12.67-7.24,17-14.72q1.35-2.34,2.46-4.69C463.1,62.84,463.66,56.08,463.29,49.34Z"/><path class="cls-1" d="M405.13,371.94c1.06-4.91,1.41-10.54-.08-15.51a23.31,23.31,0,0,0,8.75-1c3.2-1,4-3,6.51-5a12.41,12.41,0,0,1,10.39-2.54c6.55,1.41,11.06,6.89,17.87,8.22s30.08,6.07,28.33,16.33c-.59,3.48-4.77,3.7-7.55,4.19a154.28,154.28,0,0,1-19.65,2.12,1.35,1.35,0,0,1-.55-.09q-23.5,2.12-47.12,2.5A39.62,39.62,0,0,0,405.13,371.94Z"/><path class="cls-9" d="M423.41,356.38a5,5,0,0,0-1.81-2.8c-3.39-2.64-9.43-2.74-13.57-3.41-12.06-2-24.27-2.74-36.39-4.12-27.82-3.17-54.27-13.55-81.67-18.59-13.54,8.52-27.76,15.9-41.65,23.82,1.08,11.46,1.62,24.79,11.14,29.8,12.64,6.64,117.55,7.58,151.9,8.06,3.1.05,8,1,10.71-1,2.08-2.62,2-6.8,2.19-10C424.8,370.91,425.2,363.47,423.41,356.38Z"/><path class="cls-1" d="M383.11,358.07a59.53,59.53,0,0,1-1,30.66c11.84.19,22.1.31,29.27.41,3.1.05,8,1,10.71-1a6.58,6.58,0,0,0,.61-.94C413.58,373.26,399.23,363.76,383.11,358.07Z"/><path class="cls-9" d="M465.85,132.07a11.15,11.15,0,0,0-.06-4.3c-1.39-6.79-2.6-14.32-5.59-20.61-3.4-7.12-7.62.5-11.31,3.37-6.87,5.34-17.25,9.71-24.39,2.37a1.27,1.27,0,0,0-2.14.85c-.18,2.19-1.34,14.16-.78,17.66a19,19,0,0,0,9.05,13C441.27,150.83,463.3,145.93,465.85,132.07Z"/><path class="cls-1" d="M392.19,359c3.94-3.13,8.83-5.93,13.94-6.8a23.13,23.13,0,0,1-2.95-8.3c-.49-3.33.9-5,1.63-8.07a12.39,12.39,0,0,0-2.32-10.45c-4.17-5.24-11.08-6.86-15.29-12.36s-18.78-24.28-27.2-18.16c-2.86,2.08-1.2,5.92-.41,8.62A151.65,151.65,0,0,0,366.41,322a1.18,1.18,0,0,0,.32.45q8.52,22,18.65,43.34A40.38,40.38,0,0,1,392.19,359Z"/><path class="cls-9" d="M487.42,437.14c-2.84-8.48-10.41-12.73-16.94-18-13.51-11-24.78-24.44-35.39-38.16-5.32-6.88-10.47-13.89-15.7-20.84-4-5.27-8.43-12.91-16-12.56a26.3,26.3,0,0,0-8.44,1.82c-4.39,1.74-12.72,6.73-12.69,12.22a14.41,14.41,0,0,0,1.14,4.76c8.23,22.47,19,43.28,33.91,62.09,10.27,13,21.7,25.92,35.8,34.82a57.58,57.58,0,0,0,21.13,7.88C475,471.26,490.61,446.63,487.42,437.14Z"/><path class="cls-8" d="M458.23,70.19c1.64,2.19-2.77,10.64-2.24,13.2.22,1.08.46,2.16.71,3.23,3.23,1.55,16.86-21.59,16.39-32.17-.23-5.22.23-12.7-1.16-17.72a38.77,38.77,0,0,0-5.55-12.6,20.16,20.16,0,0,0-8.6-7c-4.34-1.74-9.28-1.18-13.84-1-10.72.35-21.86,1.59-30.79,8.05-7.56,5.48-15.27,14.15-15.29,24a.59.59,0,0,0,.6.61c-.2.92-.37,1.84-.49,2.75s1.15.79,1.26,0a27.73,27.73,0,0,1,7.41-15.78c4.56-4.69,10.38-6,16.74-5.28,6.72.79,14,2.84,19.15,7.56,6.32,5.75,6.82,13.58,6.43,21.62-.21,4.36.94,8.56,6.19,7.63,1.7-.3,1.07-.39,1.76,1.19C457.8,70.5,456.91,68.45,458.23,70.19Z"/><path class="cls-13" d="M466.6,21c-2.84-3.15-5.78-6.13-9.92-7.41-.78-.25-1.11,1-.34,1.21,3.61,1.12,6.24,3.67,8.74,6.39,3.27,3.57,5.95,7,6.31,12,.05.8,1.31.81,1.26,0C472.29,28.19,469.89,24.65,466.6,21Z"/><path class="cls-13" d="M476.19,16.16a7.1,7.1,0,0,1-5.83,3.59c-.8,0-.81,1.3,0,1.26a8.4,8.4,0,0,0,6.92-4.22A.63.63,0,0,0,476.19,16.16Z"/><path class="cls-13" d="M467.92,35.36c-.12-.8-1.33-.46-1.22.34a33.35,33.35,0,0,1-14.07,31.87c-.67.45,0,1.55.63,1.09A34.68,34.68,0,0,0,467.92,35.36Z"/><path class="cls-13" d="M461.68,30.85A14.4,14.4,0,0,1,454,37.66c-.75.29-.42,1.51.34,1.22a15.73,15.73,0,0,0,8.41-7.4C463.15,30.77,462.06,30.13,461.68,30.85Z"/><path class="cls-13" d="M411.44,25.59c-3.35,1.31-7,4.37-6.75,8.3.05.81,1.31.81,1.26,0-.18-3.33,3-6,5.82-7.08C412.52,26.52,412.2,25.3,411.44,25.59Z"/><path class="cls-10" d="M462.65,62.62c-1.72-1.22-4.48-1.09-6.69.53-2.95,2.17-5,5.68-6.27,8.74-1.05,2.46-2.53,10.08,2.25,10.73,3.4.46,6.21-4.16,7.65-6.11,2.29-3.09,4.65-6.7,4.68-10.42A4,4,0,0,0,462.65,62.62Z"/><path class="cls-14" d="M460,131.79a23.75,23.75,0,0,1-25.1,10.57c-4.54-1-10.72-3.69-12.4-8.45-1.54-4.34-.28-10.15.28-14.58.1-.8-1.16-.79-1.26,0-.64,5.08-2.25,12.1.63,16.78,2.49,4.06,8,6.46,12.42,7.46a25,25,0,0,0,26.52-11.14C461.55,131.75,460.46,131.11,460,131.79Z"/><path class="cls-15" d="M381,184.17a105.3,105.3,0,0,0-4.81,33.49.63.63,0,0,0,1.26,0,103.85,103.85,0,0,1,4.77-33.16C382.47,183.73,381.26,183.39,381,184.17Z"/><path class="cls-15" d="M435.44,294.33A167.92,167.92,0,0,1,400.7,233c-.24-.77-1.46-.44-1.22.34a169.38,169.38,0,0,0,35.07,61.93C435.09,295.83,436,294.93,435.44,294.33Z"/><path class="cls-15" d="M395.52,272.05l-3.34-9.24c-.28-.76-1.5-.43-1.22.34l3.35,9.24C394.58,273.15,395.8,272.82,395.52,272.05Z"/><path class="cls-14" d="M482.84,220.59c.05-.81-1.21-.81-1.26,0a618.84,618.84,0,0,0,1.62,95.3c.08.8,1.34.81,1.26,0A618.84,618.84,0,0,1,482.84,220.59Z"/><path class="cls-14" d="M519.42,297.62a162.54,162.54,0,0,1-5,15.54c-.29.76.93,1.09,1.21.33a162.41,162.41,0,0,0,5-15.53A.63.63,0,0,0,519.42,297.62Z"/><path class="cls-15" d="M333.72,243.43q-9.45,4.88-18.42,10.61c-.68.43-.05,1.52.64,1.08q9-5.72,18.42-10.6C335.08,244.14,334.44,243.06,333.72,243.43Z"/><path class="cls-14" d="M362.37,348.43c-20.62-4.87-41.25-13.9-62.82-9.91-.8.14-.65,1.39.15,1.25,21.45-4,42,5.06,62.48,9.91C363,349.86,363.15,348.61,362.37,348.43Z"/><path class="cls-14" d="M477,423.83a189.09,189.09,0,0,1-42.46-44.4c-.46-.66-1.55,0-1.09.64a191.2,191.2,0,0,0,42.91,44.85C477,425.41,477.62,424.31,477,423.83Z"/><path class="cls-11" d="M219,328.74a.64.64,0,0,0-.11-.25,4.08,4.08,0,0,0-.63-1.17c-.12-2.34-.57-4.63-2.16-6,.08-3.37,0-7.57-4.32-7.46a45.37,45.37,0,0,0-16.29,3.85c-.74.32-.1,1.41.63,1.09a46.29,46.29,0,0,1,10.82-3.08c1.4-.23,3.9-1.06,5.31-.64,2.51.77,2.66,3.26,2.61,5.48a5.26,5.26,0,0,0-1.2-.34c-5.06-.86-11.07,1.32-15.84,2.66a.63.63,0,0,0,.34,1.22,82.93,82.93,0,0,1,9.18-2.23,20.5,20.5,0,0,1,5.42-.47c3.19.41,3.94,2.34,4.17,4.85a7.25,7.25,0,0,0-2.84-.54c-4.93-.13-10.2,1-15,2-.8.16-.46,1.37.33,1.22,3-.58,6-1.08,9-1.46,2.85-.36,9-2,9.57,2.5a.63.63,0,0,0,.1.28,3.37,3.37,0,0,1,0,1.84c-.38.91-1.72.83-2.5,1l-4.64.66c-.23-1.44,2.35-2.16,3.35-2.43a.63.63,0,0,0-.33-1.21,7.77,7.77,0,0,0-3.13,1.39,2.61,2.61,0,0,0-1,2.88,1.68,1.68,0,0,0,1,.65l4.45-.64a8.11,8.11,0,0,0,3.1-.64C219.92,332.69,219.32,330.24,219,328.74Z"/><path class="cls-11" d="M198.28,311.63a6.9,6.9,0,0,0-3.39,3.37c-.34.73.75,1.37,1.09.63a5.79,5.79,0,0,1,2.94-2.91C199.66,312.39,199,311.3,198.28,311.63Z"/><path class="cls-11" d="M203.33,304.76c-.62-.06-.73-.61-.53-1.1.31-.74-.91-1.07-1.22-.33a2,2,0,0,0,1.75,2.69C204.13,306.1,204.13,304.84,203.33,304.76Z"/><path class="cls-11" d="M232,316.79a17.94,17.94,0,0,0-11.62,6.82c-.49.63.39,1.53.89.89A17,17,0,0,1,232.3,318C233.1,317.88,232.76,316.67,232,316.79Z"/><path class="cls-11" d="M554.89,431a3.24,3.24,0,0,0-2.74,0c-.75.32-.1,1.4.63,1.08a1.9,1.9,0,0,1,1.48,0C555,432.42,555.64,431.34,554.89,431Z"/><path class="cls-11" d="M535.37,433.25c-.18-.24-.37-.47-.57-.71a.62.62,0,0,0,.78-.23,2.69,2.69,0,0,1,2.65-1.16c.79.13,1.13-1.08.33-1.21a4,4,0,0,0-4.07,1.74.52.52,0,0,0-.08.41c-1.82-2-4.31-3.51-6.77-1.59-.63.5.26,1.39.9.89,3.32-2.61,7,4.07,8.11,6.44a27.23,27.23,0,0,1,2.5,9.91c.06.8,1.32.81,1.26,0A27.14,27.14,0,0,0,535.37,433.25Z"/><path class="cls-11" d="M521.53,429.64a.53.53,0,0,0-.32.34,4,4,0,0,0-1.54,1.28,3.4,3.4,0,0,0-4.63.14.53.53,0,0,0-.17.54,4.17,4.17,0,0,0-.53,1.81,48.75,48.75,0,0,0,.23,5.92.59.59,0,0,0,.43.57c.56.75,1.56.32,2.18-.15a5.05,5.05,0,0,0,1.73-2.46c.25-.78-1-1.11-1.22-.34a3.57,3.57,0,0,1-.77,1.35,3.24,3.24,0,0,1-.59.52,2.14,2.14,0,0,1-.32.2c-.06,0-.08,0-.09,0s-.07-.09-.11-.11c-.06-1.19-.11-2.37-.17-3.56s-.36-2.91.77-3.68a.64.64,0,0,0,.22-.28c3.1-1.72,4.56,5.27,4.88,7.25a34,34,0,0,1,.15,9.12c-.09.81,1.17.8,1.26,0,.5-4.72.51-10.71-1.75-15.06a5.59,5.59,0,0,0-.63-.95.4.4,0,0,0,.13-.13,2.59,2.59,0,0,1,1.4-1,.6.6,0,0,0,.4-.37c6.6-2.35,7.06,14.67,7.24,17.88,0,.81,1.31.82,1.26,0C530.71,444,530.45,425.77,521.53,429.64Z"/><path class="cls-11" d="M522.53,418.39c-.25-.77-1.47-.44-1.22.33a18.64,18.64,0,0,1,.76,8.83c-.12.79,1.09,1.13,1.22.33A20,20,0,0,0,522.53,418.39Z"/><path class="cls-11" d="M412.29,83.13a9.51,9.51,0,0,1-2.38-.79c-1.59-.88-1.9-2.3-1.71-3.93a22.6,22.6,0,0,1,1.86-5.56c.31-.75-.83-1.28-1.14-.53-.92,2.26-2.77,5.9-2,8.38.68,2.3,3.1,3.17,5.19,3.67C412.86,84.56,413.08,83.32,412.29,83.13Z"/><path class="cls-11" d="M416.53,81.09l-3.21-.58a.63.63,0,0,0-.22,1.24l3.21.58A.63.63,0,0,0,416.53,81.09Z"/><path class="cls-16" d="M431.53,70.27a12.15,12.15,0,0,1-8.68,1.37c-1.52-.32-2,1.94-.55,2.49,3.49,1.31,6.91,1,10.52-1.69A1.27,1.27,0,0,0,431.53,70.27Z"/><path class="cls-16" d="M404.86,69.85a3.83,3.83,0,0,1-4.47-2.57c-.44-1.42-2.56-.64-2.22.79.89,3.66,4,5.32,7.55,3.93A1.16,1.16,0,0,0,404.86,69.85Z"/><path class="cls-11" d="M460.3,65.5A19.22,19.22,0,0,0,453.48,73c-.37.72.72,1.36,1.09.64a17.87,17.87,0,0,1,6.37-7.07C461.62,66.15,461,65.06,460.3,65.5Z"/><path class="cls-8" d="M433.84,60.26c-2.81-2.08-7.49-3.06-10.7-1.32-3.66,2-3,7,1.34,7.11C427,66.11,440.14,65,433.84,60.26Z"/><path class="cls-8" d="M406.62,58.54a4.54,4.54,0,0,0-4.31-2.5c-3.27.34-5.4,3.33-4,5.13a1.51,1.51,0,0,0,.47.36c2,1.15,4.31,2.91,6.73,2.27S407.79,60.57,406.62,58.54Z"/><path class="cls-11" d="M421.85,92.41a.62.62,0,0,0-.77-.59,22.15,22.15,0,0,1-8.11.45,22.38,22.38,0,0,1-4-.9c-.53-.17-1.22-.68-1.8-.63a1,1,0,0,0-.64,1.78c4.18,3.7,10.49,3.56,15,.61A.6.6,0,0,0,421.85,92.41Z"/><path class="cls-4" d="M249.58,196.5l-.5-.51c-.46-.45-1.17.26-.71.71l.5.5C249.33,197.66,250,197,249.58,196.5Z"/><path class="cls-4" d="M280.45,449.31l-.67.67c-.46.45.25,1.16.71.71l.67-.67A.5.5,0,0,0,280.45,449.31Z"/></g></g></svg>